<svg xmlns="http://www.w3.org/2000/svg" viewBox="0 0 1250 1400">
  <defs>
    <style>
      .cls-1 {
        fill: #6a2a00;
      }

      .cls-10, .cls-2 {
        fill: #351500;
      }

      .cls-3 {
        fill: #9e3f00;
      }

      .cls-4 {
        fill: #d35400;
      }

      .cls-5 {
        fill: #e59866;
      }

      .cls-6 {
        fill: #fff;
      }

      .cls-7, .cls-9 {
        fill: #f0e7e3;
      }

      .cls-10, .cls-11, .cls-7, .cls-8 {
        stroke: #000;
      }

      .cls-10, .cls-11, .cls-12, .cls-7, .cls-8 {
        stroke-miterlimit: 10;
      }

      .cls-11, .cls-12 {
        fill: none;
      }

      .cls-12 {
        stroke: #a09a8c;
        stroke-width: 11px;
      }
    </style>
  </defs>
  <title>SquirrelSpritesheet2</title>
  <g id="sprite">
    <g id="Layer_8" data-name="Layer 8">
      <path class="cls-1" d="M51.4,123.69s3-12,9.54-21.09l-3,21.09Z"/>
      <path class="cls-1" d="M56.37,125.79s5.77-22.2,10.88-26.8c0,0-5.78,21.69-3.8,28.19Z"/>
      <polygon class="cls-2" points="108.2 188.22 114.58 183.31 115.01 178.7 110.93 177.05 118.64 176.07 118.21 180.69 122.02 185.27 108.2 188.22"/>
      <path class="cls-3" d="M114.81,179.69s-35.08-2.28-8.2-26.88c0,0,11.85-9.11,18.22-2.73s1.44,20.71-17.5,20.6C107.33,170.68,115.27,170.12,114.81,179.69Z"/>
      <polygon class="cls-2" points="74.25 171.15 68.22 173.16 70.23 170.15 62.7 175.17 65.71 169.65 71.24 166.63 74.25 166.63 74.25 171.15"/>
      <path class="cls-3" d="M75.1,151.6c-1.76,4.57,1.2,9.12,1.2,9.12s-2,0-4.81,6.09l2.4,4.34s6-7,7.62-10.43S77.1,146.38,75.1,151.6Z"/>
      <path class="cls-4" d="M111.92,78.24s-44.7-4.52-33.65,34.65c0,0,9,24.11,43.69,10.55S153.6,136,153.6,136s-10.71,12.58-23.94,11.81,3.85,5.26,3.85,5.26l28.13-5s33.65-18.08-8-38.17c0,0-14.56-7-51.22-7.54C93.34,90.79,111.92,78.24,111.92,78.24Z"/>
      <path class="cls-4" d="M65,139.26s63.78-8,74.33,9.54-16.07,23.61-16.07,23.61-61.28-16.58-67.8-24.11S65,139.26,65,139.26Z"/>
      <path class="cls-5" d="M73.32,157s33.07,1.63,40.61,4.64,0,8.2,0,8.2Z"/>
      <rect class="cls-6" x="34.82" y="146.79" width="2.01" height="4.02" transform="translate(-74.77 43) rotate(-32.73)"/>
      <rect class="cls-6" x="38.67" y="148.89" width="1.28" height="4.02" transform="matrix(-0.08, -1, 1, -0.08, -108.1, 201.75)"/>
      <path class="cls-4" d="M29.8,145.79s17.08-29.63,28.13-24.61,26.62,21.09,7,26.62-23.1,3.51-23.1,3.51Z"/>
      <path class="cls-5" d="M34.76,138.11s29.64-8.5,27.66,10.39c0,0-15.5,4.15-20,3s-12.58-5.69-12.58-5.69Z"/>
      <polygon class="cls-2" points="123.22 193 130.25 186.47 130.25 180.95 125.23 179.44 134.27 177.43 134.27 182.96 139.29 187.98 123.22 193"/>
      <path class="cls-3" d="M128.24,181.45s-38.67-2.51-9-29.63c0,0,13.06-10,20.09-3s1.58,22.84-19.3,22.72C120,171.52,128.74,170.9,128.24,181.45Z"/>
      <path class="cls-7" d="M52.4,126.2a14.53,14.53,0,0,0-9,5.53h6.53Z"/>
      <ellipse class="cls-8" cx="47.88" cy="129.72" rx="1" ry="1.51"/>
      <polygon class="cls-8" points="30 146.39 32.01 143.38 33.52 147.9 30 146.39"/>
      <polygon class="cls-2" points="79.78 172.16 71.24 173.16 74.25 174.67 68.22 179.69 81.78 177.18 83.16 175.65 79.78 172.16"/>
      <path class="cls-3" d="M83,154.83c-2.2,5.29,1.51,10.55,1.51,10.55s-2.52,0-6,7l3,5s7.54-8,9.55-12.05S85.55,148.8,83,154.83Z"/>
    </g>
    <g id="Layer_9" data-name="Layer 9">
      <polygon class="cls-2" points="311.22 150.49 302.66 151.31 305.29 149.2 298.34 145.56 312.12 145.16 313.79 146.36 311.22 150.49"/>
      <path class="cls-3" d="M332.54,138a24.71,24.71,0,0,0-9.37,4s-3.45,2.23-11.25,3.23l-.34,5,15.17-2C331.2,147.72,338.94,136.76,332.54,138Z"/>
      <polygon class="cls-2" points="385.56 188.44 390.02 181.69 388.91 177.16 384.5 176.93 391.5 173.47 392.61 178 397.73 181.11 385.56 188.44"/>
      <path class="cls-3" d="M388.16,178.82s-55.56-23-25.9-39.37c0,0,12.69-5.66,17.07,1.5s3.91,11.52.29,19.32C379.62,160.27,390.66,170.27,388.16,178.82Z"/>
      <path class="cls-1" d="M302.64,111.24s3.83-11.82,11-20.39l-4.46,20.84Z"/>
      <path class="cls-1" d="M307.45,113.67s7.28-21.74,12.69-26c0,0-7.25,21.24-5.72,27.86Z"/>
      <path class="cls-4" d="M366.14,70.06s-44.29-7.59-36,32.26c0,0,7.37,24.67,42.87,13.52s30.7,14.7,30.7,14.7-11.55,11.82-24.69,10.14,3.48,5.52,3.48,5.52l28.4-3.08s34.82-15.73-5.39-38.63c0,0-14.05-8-50.59-11C346.73,81.3,366.14,70.06,366.14,70.06Z"/>
      <path class="cls-4" d="M315.09,127.71s64.19-3.64,73.5,14.63-17.65,22.44-17.65,22.44S311,144,305,136.07,315.09,127.71,315.09,127.71Z"/>
      <path class="cls-5" d="M322.22,146s32.88,3.89,40.19,7.42-.56,8.18-.56,8.18Z"/>
      <rect class="cls-6" x="284.37" y="133.22" width="2.01" height="4.02" transform="translate(-29.85 154.16) rotate(-28.79)"/>
      <rect class="cls-6" x="288.07" y="135.55" width="1.28" height="4.02" transform="translate(153.61 427.43) rotate(-90.49)"/>
      <path class="cls-4" d="M279.57,131.8s19.07-28.39,29.75-22.62,25.11,22.88,5.19,27-23.29,1.92-23.29,1.92Z"/>
      <path class="cls-5" d="M285.05,124.49s30.15-6.45,26.88,12.26c0,0-15.75,3.07-20.2,1.59s-12.16-6.54-12.16-6.54Z"/>
      <polygon class="cls-2" points="405.29 196.63 409.16 187.84 406.97 182.77 401.76 183.38 409.27 177.95 411.46 183.03 418.06 185.65 405.29 196.63"/>
      <path class="cls-3" d="M406.42,184.86S336.92,169,368.34,144c0,0,13.72-9.12,20.25-1.62s6.86,12.69,4.17,22.53C392.76,164.87,407.65,174.37,406.42,184.86Z"/>
      <path class="cls-7" d="M303.46,113.82a14.49,14.49,0,0,0-9.39,4.89l6.51.44Z"/>
      <ellipse class="cls-8" cx="298.71" cy="117.01" rx="1.51" ry="1" transform="translate(161.45 406.98) rotate(-86.06)"/>
      <polygon class="cls-8" points="279.73 132.42 281.94 129.55 283.13 134.16 279.73 132.42"/>
      <polygon class="cls-2" points="313.87 155.68 305.31 156.5 307.94 154.4 300.99 150.76 314.77 150.35 316.44 151.55 313.87 155.68"/>
      <path class="cls-3" d="M335.19,143.23a24.71,24.71,0,0,0-9.37,4s-3.45,2.23-11.25,3.23l-.34,5,15.17-2C333.85,152.92,341.59,142,335.19,143.23Z"/>
    </g>
    <g id="Layer_10" data-name="Layer 10">
      <polygon class="cls-2" points="568.59 162.28 560.7 165.7 562.55 162.89 554.82 161.57 567.8 156.93 569.76 157.56 568.59 162.28"/>
      <path class="cls-3" d="M585,143.87a24.77,24.77,0,0,0-7.68,6.69s-2.59,3.19-9.7,6.54l1.21,4.85,13.83-6.54C586.75,153.49,590.73,140.68,585,143.87Z"/>
      <polygon class="cls-2" points="651.01 175.48 653.17 167.68 650.72 163.72 646.45 164.86 652.05 159.41 654.49 163.38 660.32 164.76 651.01 175.48"/>
      <path class="cls-3" d="M650.52,165.52s-59.94-4.75-36.78-29.47c0,0,10.33-9.29,16.7-3.83s7.27,9.76,6.24,18.3C636.68,150.52,650.26,156.62,650.52,165.52Z"/>
      <path class="cls-1" d="M548.73,126.14s3.47-11.93,10.34-20.71l-3.82,21Z"/>
      <path class="cls-1" d="M553.61,128.43s6.62-22,11.9-26.36c0,0-6.61,21.45-4.87,28Z"/>
      <path class="cls-4" d="M596.05,68.84s-44.47,6.43-24.26,41.77c0,0,14.6,21.2,45-.34s33.74,4.52,33.74,4.52-7.36,14.81-20.37,17.26,5,4.18,5,4.18l26.07-11.68s28.27-25.69-17-35.1c0,0-15.83-3.29-51.52,5.09C581.06,85.52,596.05,68.84,596.05,68.84Z"/>
      <path class="cls-4" d="M565.25,139.42s60-23.24,74.44-8.73-9.88,26.79-9.88,26.79-63.47-1.25-71.63-7S565.25,139.42,565.25,139.42Z"/>
      <path class="cls-5" d="M577.66,154.58s32.48-6.43,40.52-5.33,2,8,2,8Z"/>
      <rect class="cls-6" x="531.64" y="148.61" width="2.01" height="4.02" transform="translate(41.62 406.13) rotate(-43.28)"/>
      <rect class="cls-6" x="535.38" y="150.87" width="1.28" height="4.02" transform="translate(399.26 693.24) rotate(-91.72)"/>
      <path class="cls-4" d="M526.3,147.4s18.2-29,29.05-23.52,25.79,22.1,6,26.87-23.23,2.63-23.23,2.63Z"/>
      <path class="cls-5" d="M531.55,139.92s29.94-7.37,27.24,11.43c0,0-15.65,3.56-20.14,2.22s-12.35-6.17-12.35-6.17Z"/>
      <polygon class="cls-2" points="672.3 177.19 673.28 167.64 669.63 163.49 664.86 165.67 670.33 158.2 673.98 162.35 681.06 162.81 672.3 177.19"/>
      <path class="cls-3" d="M669.75,165.65s-71,6.31-48.83-27.18c0,0,10.24-12.91,18.77-7.78s10.43,10,10.91,20.15C650.6,150.84,667.69,155.29,669.75,165.65Z"/>
      <path class="cls-7" d="M549.63,128.69a14.53,14.53,0,0,0-9.24,5.18l6.52.25Z"/>
      <ellipse class="cls-8" cx="544.98" cy="132.03" rx="1.51" ry="1" transform="translate(392.21 671.57) rotate(-87.81)"/>
      <polygon class="cls-8" points="526.48 148.01 528.6 145.07 529.93 149.65 526.48 148.01"/>
      <polygon class="cls-2" points="572.71 166.41 564.82 169.83 566.67 167.01 558.94 165.69 571.93 161.06 573.88 161.69 572.71 166.41"/>
      <path class="cls-3" d="M589.15,148a24.91,24.91,0,0,0-7.68,6.69s-2.59,3.19-9.7,6.55l1.21,4.85,13.83-6.54C590.87,157.62,594.85,144.8,589.15,148Z"/>
    </g>
    <g id="Layer_11" data-name="Layer 11">
      <path class="cls-1" d="M800.15,139s-.63-12.41,3-23l3.25,21.06Z"/>
      <path class="cls-1" d="M805.51,139.53s-.94-22.91,2.61-28.8c0,0,.78,22.43,4.58,28.07Z"/>
      <polygon class="cls-2" points="852 181 860.59 177.5 863.52 173.71 863.28 171.45 868.14 173.42 865.21 177.22 866.76 181 852 181"/>
      <path class="cls-3" d="M866.76,174.06s-14.11.62,3.64-29.39c0,0,8.31-11.64,15.92-7.58s7.09,18.56-10.28,23.74A28.29,28.29,0,0,1,866.76,174.06Z"/>
      <polygon class="cls-2" points="835.82 177.73 830.64 181.4 831.69 177.94 825.94 184.93 827.22 178.77 831.63 174.28 834.51 173.4 835.82 177.73"/>
      <path class="cls-3" d="M830.94,158.77c-.35,4.89,3.81,8.38,3.81,8.38s-1.92.59-2.83,7.22l3.56,3.46s3.74-8.4,4.26-12.19S831.34,153.2,830.94,158.77Z"/>
      <path class="cls-4" d="M938.34,77.87s44.08,8.69,22.1,42.95c0,0-15.66,20.43-44.87-2.63S878,119,878,119s-3.88,10.88,9,14,8.89,10.18,8.89,10.18l-25.44-13S843.52,103.1,889.25,96c0,0,16-2.49,51.2,7.7C952.46,95.29,938.34,77.87,938.34,77.87Z"/>
      <path class="cls-4" d="M817.65,149.92s58.69-26.25,73.89-12.51-8.5,27.27-8.5,27.27-63.45,2-71.89-3.33S817.65,149.92,817.65,149.92Z"/>
      <path class="cls-5" d="M830.81,164.43s32.11-8.07,40.2-7.38,2.38,7.84,2.38,7.84Z"/>
      <rect class="cls-6" x="791.56" y="165.52" width="2.01" height="4.02" transform="translate(151.77 663.11) rotate(-49.65)"/>
      <rect class="cls-6" x="795.86" y="166.52" width="1.28" height="4.02" transform="translate(929.54 971.72) rotate(-111.35)"/>
      <path class="cls-4" d="M785.92,166.4s7.71-33.32,19.74-31.73,31.61,12.43,14.48,23.42-21.08,10.09-21.08,10.09Z"/>
      <path class="cls-5" d="M788.43,157.61s25.88-16.76,29.48,1.89c0,0-13.62,8.48-18.31,8.68s-13.68-1.78-13.68-1.78Z"/>
      <polygon class="cls-2" points="852 188 861.89 183.97 865.27 179.6 865 177 870.6 179.27 867.22 183.64 869 188 852 188"/>
      <path class="cls-3" d="M869,180s-16.26.72,4.2-33.86c0,0,9.57-13.41,18.34-8.73s8.16,21.39-11.85,27.35A32.53,32.53,0,0,1,869,180Z"/>
      <path class="cls-7" d="M801.84,141.08a14.52,14.52,0,0,0-7,7.92l6.24-1.9Z"/>
      <ellipse class="cls-8" cx="798.54" cy="145.76" rx="1" ry="1.51" transform="translate(-7.85 238.74) rotate(-16.92)"/>
      <polygon class="cls-8" points="786.28 166.92 787.33 163.45 790.08 167.34 786.28 166.92"/>
      <polygon class="cls-2" points="841.4 177.08 833.52 180.53 836.85 181.09 832.54 187.65 844.78 181.3 845.65 179.44 841.4 177.08"/>
      <path class="cls-3" d="M839.48,159.55c-.57,5.7,4.51,9.65,4.51,9.65s-2.4.74-3.72,8.49l4.35,3.92s4.87-9.88,5.62-14.31S840.13,153.06,839.48,159.55Z"/>
    </g>
    <g id="Layer_14" data-name="Layer 14">
      <path class="cls-1" d="M800.15,339s-.63-12.41,3-23l3.25,21.06Z"/>
      <path class="cls-1" d="M805.51,339.53s-.94-22.91,2.61-28.8c0,0,.78,22.43,4.58,28.07Z"/>
      <polygon class="cls-2" points="852 381 860.59 377.5 863.52 373.71 863.28 371.45 868.14 373.42 865.21 377.22 866.76 381 852 381"/>
      <path class="cls-3" d="M866.76,374.06s-14.11.62,3.64-29.39c0,0,8.31-11.64,15.92-7.58s7.09,18.56-10.28,23.74A28.29,28.29,0,0,1,866.76,374.06Z"/>
      <polygon class="cls-2" points="835.82 377.73 830.64 381.4 831.69 377.94 825.94 384.93 827.22 378.77 831.63 374.28 834.51 373.4 835.82 377.73"/>
      <path class="cls-3" d="M830.94,358.77c-.35,4.89,3.81,8.38,3.81,8.38s-1.92.59-2.83,7.22l3.56,3.46s3.74-8.4,4.26-12.19S831.34,353.2,830.94,358.77Z"/>
      <path class="cls-4" d="M938.34,277.87s44.08,8.69,22.1,42.95c0,0-15.66,20.43-44.87-2.63S878,319,878,319s-3.88,10.88,9,14,8.89,10.18,8.89,10.18l-25.44-13S843.52,303.1,889.25,296c0,0,16-2.49,51.2,7.7C952.46,295.29,938.34,277.87,938.34,277.87Z"/>
      <path class="cls-4" d="M817.65,349.92s58.69-26.25,73.89-12.51-8.5,27.27-8.5,27.27-63.45,2-71.89-3.33S817.65,349.92,817.65,349.92Z"/>
      <path class="cls-5" d="M830.81,364.43s32.11-8.07,40.2-7.38,2.38,7.84,2.38,7.84Z"/>
      <rect class="cls-6" x="791.56" y="365.52" width="2.01" height="4.02" transform="translate(-0.66 733.63) rotate(-49.65)"/>
      <rect class="cls-6" x="795.86" y="366.52" width="1.28" height="4.02" transform="translate(743.27 1244.54) rotate(-111.35)"/>
      <path class="cls-4" d="M785.92,366.4s7.71-33.32,19.74-31.73,31.61,12.43,14.48,23.42-21.08,10.09-21.08,10.09Z"/>
      <path class="cls-5" d="M788.43,357.61s25.88-16.76,29.48,1.89c0,0-13.62,8.48-18.31,8.68s-13.68-1.78-13.68-1.78Z"/>
      <polygon class="cls-2" points="852 388 861.89 383.97 865.27 379.6 865 377 870.6 379.27 867.22 383.64 869 388 852 388"/>
      <path class="cls-3" d="M869,380s-16.26.72,4.2-33.86c0,0,9.57-13.41,18.34-8.73s8.16,21.39-11.85,27.35A32.53,32.53,0,0,1,869,380Z"/>
      <path class="cls-7" d="M801.84,341.08a14.52,14.52,0,0,0-7,7.92l6.24-1.9Z"/>
      <ellipse class="cls-8" cx="798.54" cy="345.76" rx="1" ry="1.51" transform="translate(-66.07 247.4) rotate(-16.92)"/>
      <polygon class="cls-8" points="786.28 366.92 787.33 363.45 790.08 367.34 786.28 366.92"/>
      <polygon class="cls-2" points="841.4 377.08 833.52 380.53 836.85 381.09 832.54 387.65 844.78 381.3 845.65 379.44 841.4 377.08"/>
      <path class="cls-3" d="M839.48,359.55c-.57,5.7,4.51,9.65,4.51,9.65s-2.4.74-3.72,8.49l4.35,3.92s4.87-9.88,5.62-14.31S840.13,353.06,839.48,359.55Z"/>
    </g>
    <g id="Layer_15" data-name="Layer 15">
      <polygon class="cls-2" points="568.59 362.28 560.7 365.7 562.55 362.89 554.82 361.57 567.8 356.93 569.76 357.56 568.59 362.28"/>
      <path class="cls-3" d="M585,343.87a24.77,24.77,0,0,0-7.68,6.69s-2.59,3.19-9.7,6.54l1.21,4.85,13.83-6.54C586.75,353.49,590.73,340.68,585,343.87Z"/>
      <polygon class="cls-2" points="651.01 375.48 653.17 367.68 650.72 363.71 646.45 364.86 652.05 359.41 654.49 363.38 660.32 364.76 651.01 375.48"/>
      <path class="cls-3" d="M650.52,365.52s-59.94-4.75-36.78-29.47c0,0,10.33-9.29,16.7-3.83s7.27,9.76,6.24,18.3C636.68,350.52,650.26,356.62,650.52,365.52Z"/>
      <path class="cls-1" d="M548.73,326.14s3.47-11.93,10.34-20.71l-3.82,21Z"/>
      <path class="cls-1" d="M553.61,328.43s6.62-22,11.9-26.36c0,0-6.61,21.45-4.87,28Z"/>
      <path class="cls-4" d="M596.05,268.84s-44.47,6.43-24.26,41.77c0,0,14.6,21.2,45-.34s33.74,4.52,33.74,4.52-7.36,14.81-20.37,17.26,5,4.18,5,4.18l26.07-11.68s28.27-25.69-17-35.1c0,0-15.83-3.29-51.52,5.09C581.06,285.52,596.05,268.84,596.05,268.84Z"/>
      <path class="cls-4" d="M565.25,339.42s60-23.24,74.44-8.73-9.88,26.79-9.88,26.79-63.47-1.25-71.63-7S565.25,339.42,565.25,339.42Z"/>
      <path class="cls-5" d="M577.66,354.58s32.48-6.43,40.52-5.33,2,8,2,8Z"/>
      <rect class="cls-6" x="531.64" y="348.61" width="2.01" height="4.02" transform="translate(-95.5 460.53) rotate(-43.28)"/>
      <rect class="cls-6" x="535.38" y="350.87" width="1.28" height="4.02" transform="translate(199.35 899.23) rotate(-91.72)"/>
      <path class="cls-4" d="M526.3,347.4s18.2-29,29.05-23.52,25.79,22.1,6,26.87-23.23,2.63-23.23,2.63Z"/>
      <path class="cls-5" d="M531.55,339.92s29.94-7.37,27.24,11.43c0,0-15.65,3.56-20.14,2.22s-12.35-6.17-12.35-6.17Z"/>
      <polygon class="cls-2" points="672.3 377.19 673.28 367.64 669.63 363.49 664.86 365.67 670.33 358.2 673.98 362.35 681.06 362.81 672.3 377.19"/>
      <path class="cls-3" d="M669.75,365.65s-71,6.31-48.83-27.18c0,0,10.24-12.91,18.77-7.78s10.43,10,10.91,20.15C650.6,350.84,667.69,355.29,669.75,365.65Z"/>
      <path class="cls-7" d="M549.63,328.69a14.53,14.53,0,0,0-9.24,5.18l6.52.25Z"/>
      <ellipse class="cls-8" cx="544.98" cy="332.03" rx="1.51" ry="1" transform="translate(192.35 863.92) rotate(-87.81)"/>
      <polygon class="cls-8" points="526.48 348.01 528.6 345.07 529.93 349.65 526.48 348.01"/>
      <polygon class="cls-2" points="572.71 366.41 564.82 369.83 566.67 367.01 558.94 365.69 571.93 361.06 573.88 361.69 572.71 366.41"/>
      <path class="cls-3" d="M589.15,348a24.91,24.91,0,0,0-7.68,6.69s-2.59,3.19-9.7,6.55l1.21,4.85,13.83-6.54C590.87,357.62,594.85,344.8,589.15,348Z"/>
    </g>
    <g id="Layer_16" data-name="Layer 16">
      <polygon class="cls-2" points="308.49 333.19 299.97 332.04 303.01 330.58 297.07 325.46 310.58 328.21 311.93 329.76 308.49 333.19"/>
      <path class="cls-3" d="M332.08,325.94a24.81,24.81,0,0,0-10,1.75s-3.87,1.39-11.69.58l-1.48,4.78,15.22,1.56C328.57,335.07,338.61,326.16,332.08,325.94Z"/>
      <polygon class="cls-2" points="372.19 387.13 378.07 381.57 378.03 376.91 373.78 375.68 381.39 373.91 381.43 378.57 385.71 382.77 372.19 387.13"/>
      <path class="cls-3" d="M376.92,378.35s-48.84-35.08-16.22-44.25c0,0,13.64-2.6,16.27,5.36s1.17,12.12-4.13,18.89C372.84,358.35,381.3,370.6,376.92,378.35Z"/>
      <path class="cls-1" d="M309.5,293.45s9.73-7.74,20.41-10.94l-15.23,14.91Z"/>
      <path class="cls-1" d="M312.17,298.13s18.08-14.1,24.93-14.64c0,0-17.78,13.7-20.16,20.06Z"/>
      <path class="cls-4" d="M380.33,267.43S339,249.93,338,290.63c0,0,1.53,25.7,38.65,23s26.53,21.33,26.53,21.33-13.95,8.86-26.36,4.23,2.13,6.16,2.13,6.16l28.35,3.49s37.49-7.35,3.58-38.84c0,0-11.85-11-46.73-22.3C358.87,274,380.33,267.43,380.33,267.43Z"/>
      <path class="cls-4" d="M317.46,311.9s63.32,11.13,68.21,31-22.31,17.82-22.31,17.82-53.67-33.9-57.68-43S317.46,311.9,317.46,311.9Z"/>
      <path class="cls-5" d="M320.23,331.29s31.12,11.3,37.43,16.4-2.42,7.84-2.42,7.84Z"/>
      <rect class="cls-6" x="280.86" y="301.89" width="2.01" height="4.02" transform="translate(26.12 -22.29) rotate(4.75)"/>
      <rect class="cls-6" x="282.71" y="305.68" width="1.28" height="4.02" transform="translate(-129.08 377.38) rotate(-56.95)"/>
      <path class="cls-4" d="M278.91,297.84s31.59-13.12,37.3-2.41,8.29,32.93-10.62,25.4-20.47-11.27-20.47-11.27Z"/>
      <path class="cls-5" d="M287.52,294.77s28.7,11.28,15.63,25.07c0,0-14.82-6.14-17.72-9.83s-6.52-12.17-6.52-12.17Z"/>
      <polygon class="cls-2" points="389.52 399.6 395.3 391.94 394.33 386.5 389.12 385.9 397.67 382.33 398.64 387.77 404.46 391.83 389.52 399.6"/>
      <path class="cls-3" d="M393.32,388.41s-64-31.34-27.73-48.52c0,0,15.44-5.75,20.08,3s3.77,13.93-1.09,22.9C384.58,365.83,396.91,378.48,393.32,388.41Z"/>
      <path class="cls-7" d="M308.77,296.05a14.54,14.54,0,0,0-10.54-1.12l5.18,4Z"/>
      <ellipse class="cls-8" cx="303.04" cy="296.09" rx="1.51" ry="1" transform="translate(-116.32 356.41) rotate(-52.52)"/>
      <polygon class="cls-8" points="278.71 298.44 282.13 297.27 280.58 301.78 278.71 298.44"/>
      <polygon class="cls-2" points="309.88 338.85 301.36 337.7 304.4 336.25 298.46 331.12 311.98 333.87 313.32 335.42 309.88 338.85"/>
      <path class="cls-3" d="M333.48,331.6a24.73,24.73,0,0,0-10,1.76s-3.87,1.38-11.69.57l-1.47,4.78,15.21,1.56C330,340.73,340,331.82,333.48,331.6Z"/>
    </g>
    <g id="Layer_17" data-name="Layer 17">
      <path class="cls-1" d="M51.94,323.57S58.51,313,67.51,306.43l-9.36,19.15Z"/>
      <path class="cls-1" d="M56,327.09s12.32-19.34,18.59-22.15c0,0-12.16,18.86-12.27,25.66Z"/>
      <polygon class="cls-2" points="108.2 388.22 114.58 383.31 115.01 378.7 110.93 377.05 118.64 376.07 118.21 380.69 122.02 385.27 108.2 388.22"/>
      <path class="cls-3" d="M114.81,379.69s-35.08-2.28-8.2-26.88c0,0,11.85-9.11,18.22-2.73s1.44,20.71-17.5,20.6C107.33,370.68,115.27,370.12,114.81,379.69Z"/>
      <polygon class="cls-2" points="74.25 371.15 68.22 373.16 70.23 370.15 62.7 375.17 65.71 369.65 71.24 366.63 74.25 366.63 74.25 371.15"/>
      <path class="cls-3" d="M75.1,351.6c-1.76,4.57,1.2,9.12,1.2,9.12s-2,0-4.81,6.09l2.4,4.34s6-6.95,7.62-10.43S77.1,346.38,75.1,351.6Z"/>
      <path class="cls-4" d="M111.92,278.24s-44.7-4.52-33.65,34.65c0,0,9,24.11,43.69,10.55S153.6,336,153.6,336s-10.71,12.58-23.94,11.81,3.85,5.26,3.85,5.26l28.13-5s33.65-18.08-8-38.17c0,0-14.56-7-51.22-7.54C93.34,290.79,111.92,278.24,111.92,278.24Z"/>
      <path class="cls-4" d="M65,339.26s63.78-8,74.33,9.54-16.07,23.61-16.07,23.61-61.28-16.58-67.8-24.11S65,339.26,65,339.26Z"/>
      <path class="cls-5" d="M73.32,357s33.07,1.63,40.61,4.64,0,8.2,0,8.2Z"/>
      <rect class="cls-6" x="28.4" y="340.67" width="2.01" height="4.02" transform="translate(-86.7 18.93) rotate(-14.82)"/>
      <rect class="cls-6" x="31.43" y="343.74" width="1.28" height="4.02" transform="translate(-311.63 296.35) rotate(-76.52)"/>
      <path class="cls-4" d="M24.59,338S50,315,58.92,323.19s18.85,28.25-1.49,27.49-23.07-3.76-23.07-3.76Z"/>
      <path class="cls-5" d="M31.67,332.18s30.82,1,23.13,18.38c0,0-16-.82-20-3.32S24.59,338,24.59,338Z"/>
      <polygon class="cls-2" points="123.22 393 130.25 386.47 130.25 380.95 125.23 379.44 134.27 377.43 134.27 382.95 139.29 387.98 123.22 393"/>
      <path class="cls-3" d="M128.24,381.45s-38.67-2.51-9-29.63c0,0,13.06-10.05,20.09-3s1.58,22.84-19.3,22.72C120,371.52,128.74,370.9,128.24,381.45Z"/>
      <path class="cls-7" d="M52.12,326.27a14.53,14.53,0,0,0-10.3,2.47l6.21,2Z"/>
      <ellipse class="cls-8" cx="46.74" cy="328.22" rx="1.51" ry="1" transform="translate(-279.95 271.78) rotate(-72.09)"/>
      <polygon class="cls-8" points="24.6 338.59 27.43 336.34 27.48 341.11 24.6 338.59"/>
      <polygon class="cls-2" points="79.78 372.16 71.24 373.16 74.25 374.67 68.22 379.69 81.78 377.18 83.16 375.65 79.78 372.16"/>
      <path class="cls-3" d="M83,354.83c-2.2,5.29,1.51,10.55,1.51,10.55s-2.52,0-6,7l3,5s7.54-8,9.55-12.05S85.55,348.8,83,354.83Z"/>
    </g>
    <g id="Layer_18" data-name="Layer 18">
      <path class="cls-1" d="M1051.94,323.57s6.57-10.54,15.57-17.14l-9.36,19.15Z"/>
      <path class="cls-1" d="M1056,327.09s12.32-19.34,18.59-22.15c0,0-12.16,18.86-12.27,25.66Z"/>
      <polygon class="cls-2" points="1108.2 388.22 1114.58 383.31 1115.01 378.7 1110.93 377.05 1118.64 376.07 1118.21 380.69 1122.02 385.27 1108.2 388.22"/>
      <path class="cls-3" d="M1114.81,379.69s-35.08-2.28-8.2-26.88c0,0,11.85-9.11,18.22-2.73s1.44,20.71-17.5,20.6C1107.33,370.68,1115.27,370.12,1114.81,379.69Z"/>
      <polygon class="cls-2" points="1074.25 371.15 1068.22 373.16 1070.23 370.15 1062.7 375.17 1065.71 369.65 1071.24 366.63 1074.25 366.63 1074.25 371.15"/>
      <path class="cls-3" d="M1075.1,351.6c-1.76,4.57,1.2,9.12,1.2,9.12s-2,0-4.81,6.09l2.4,4.34s6-6.95,7.62-10.43S1077.1,346.38,1075.1,351.6Z"/>
      <path class="cls-4" d="M1111.92,278.24s-44.7-4.52-33.65,34.65c0,0,9,24.11,43.69,10.55S1153.6,336,1153.6,336s-10.71,12.58-23.94,11.81,3.85,5.26,3.85,5.26l28.13-5s33.65-18.08-8-38.17c0,0-14.56-7-51.22-7.54C1093.34,290.79,1111.92,278.24,1111.92,278.24Z"/>
      <path class="cls-4" d="M1065,339.26s63.78-8,74.33,9.54-16.07,23.61-16.07,23.61-61.28-16.58-67.8-24.11S1065,339.26,1065,339.26Z"/>
      <path class="cls-5" d="M1073.32,357s33.07,1.63,40.61,4.64,0,8.2,0,8.2Z"/>
      <rect class="cls-6" x="1028.4" y="340.67" width="2.01" height="4.02" transform="translate(-53.41 274.78) rotate(-14.82)"/>
      <rect class="cls-6" x="1031.43" y="343.74" width="1.28" height="4.02" transform="translate(455.3 1268.81) rotate(-76.52)"/>
      <path class="cls-4" d="M1024.59,338S1050,315,1058.92,323.19s18.85,28.25-1.49,27.49-23.07-3.76-23.07-3.76Z"/>
      <path class="cls-5" d="M1031.67,332.18s30.82,1,23.13,18.38c0,0-16-.82-20-3.32s-10.22-9.28-10.22-9.28Z"/>
      <polygon class="cls-2" points="1123.22 393 1130.25 386.47 1130.25 380.95 1125.23 379.44 1134.27 377.43 1134.27 382.95 1139.29 387.98 1123.22 393"/>
      <path class="cls-3" d="M1128.24,381.45s-38.67-2.51-9-29.63c0,0,13.06-10.05,20.09-3s1.58,22.84-19.3,22.72C1120,371.52,1128.74,370.9,1128.24,381.45Z"/>
      <path class="cls-7" d="M1052.12,326.27a14.53,14.53,0,0,0-10.3,2.47l6.21,2Z"/>
      <ellipse class="cls-8" cx="1046.74" cy="328.22" rx="1.51" ry="1" transform="translate(412.56 1223.33) rotate(-72.09)"/>
      <polygon class="cls-8" points="1024.6 338.59 1027.43 336.34 1027.48 341.11 1024.6 338.59"/>
      <polygon class="cls-2" points="1079.78 372.16 1071.24 373.16 1074.25 374.67 1068.22 379.69 1081.78 377.18 1083.16 375.65 1079.78 372.16"/>
      <path class="cls-3" d="M1083,354.83c-2.2,5.29,1.51,10.55,1.51,10.55s-2.52,0-6,7l3,5s7.54-8,9.55-12.05S1085.55,348.8,1083,354.83Z"/>
    </g>
    <g id="Layer_22" data-name="Layer 22">
      <path class="cls-3" d="M115.2,473.36s-16.28-9.24-20-19.52l3.51-.29s19.77,17.42,20.13,13.16Z"/>
      <path class="cls-2" d="M152.2,537.34l-.89,6.42s14.36,3,16.7,5.68c0,0-.69-8.41-13.82-13.68Z"/>
      <path class="cls-2" d="M92.76,535.16l-.94,5.72s-14,1.16-17.34,3.55,7.77-8.4,18.11-11.37Z"/>
      <path class="cls-3" d="M116.84,519.08s-4.1,10.21-11.58,13.65-7.82-.77-13,5.29L90,535.39s-1.22-6.24,10.23-12.83c0,0-1.15-14,11.76-20S116.84,519.08,116.84,519.08Z"/>
      <path class="cls-3" d="M152.37,539.44S136.62,528,130.32,520.09l14.5-12.48s10.8,2.64,11.58,29.38Z"/>
      <path class="cls-3" d="M130.33,468.59s8.29-2.09,19.51-11.48l1.58,2s-10,15.63-18.47,15.62Z"/>
      <path class="cls-4" d="M132.42,528.38s28.08,49.89-62,53.06c0,0-71.23.2-46.36-40.64,0,0,18.95-26.95,46.67-15.82,0,0-39.91,20.91,10.64,35.1,0,0,42.2,7.12,44.58-32.58Z"/>
      <path class="cls-4" d="M133.73,531.45s13.42.3,18.34-8.56-20.53-69.57-20.53-69.57L117,456.64l-3,11.17s-12.35,51.45-8.8,60.33C112,533.23,133.73,531.45,133.73,531.45Z"/>
      <path class="cls-4" d="M127,461.81s34,1.45,3.78-39.81c0,0-13.61,6.06-20.18,29.17C113.46,460.81,127,461.81,127,461.81Z"/>
      <path class="cls-3" d="M139,454.47s6.93,15.66,6.63,20.62L134.31,457Z"/>
      <path class="cls-3" d="M122.11,455.86s-3.28,10.15-11.34,15l6.32-17.45Z"/>
      <polygon class="cls-2" points="98.76 453.55 100.52 449.17 97.77 450.1 95.85 443.91 95.25 453.84 98.76 453.55"/>
      <polygon class="cls-2" points="151.41 459.1 157.2 452.27 151.01 454.19 150.08 451.45 149.84 457.11 151.41 459.1"/>
      <path class="cls-5" d="M134.54,460.69a60.65,60.65,0,0,0-3.46-13A72.35,72.35,0,0,1,122.53,461S128.68,463.14,134.54,460.69Z"/>
      <path class="cls-5" d="M140.46,438.15s-6.29-4.35-8.35-7.93c0,0-2.67,7.54-17.55,10.28,0,0,7.12-14.36,15.9-18.37C130.46,422.13,132.51,422.21,140.46,438.15Z"/>
      <polygon class="cls-2" points="136.13 430 130.81 422.11 124.04 430.66 136.13 430"/>
      <path class="cls-9" d="M119.08,451.88a15.76,15.76,0,0,0,9.26-6.76l-7,.58Z"/>
      <ellipse class="cls-8" cx="123.64" cy="447.69" rx="1.09" ry="1.63" transform="translate(-36.23 11.62) rotate(-4.7)"/>
      <path class="cls-9" d="M141.44,450a15.71,15.71,0,0,1-10.24-5.15l7-.58Z"/>
      <ellipse class="cls-8" cx="136.25" cy="446.65" rx="1.09" ry="1.63" transform="translate(-36.11 12.65) rotate(-4.7)"/>
    </g>
    <g id="Layer_23" data-name="Layer 23">
      <path class="cls-3" d="M390.43,473.36s16.28-9.24,19.95-19.52l-3.51-.29S387.1,471,386.75,466.71Z"/>
      <path class="cls-2" d="M353.43,537.34l.89,6.42s-14.36,3-16.7,5.68c0,0,.7-8.41,13.83-13.68Z"/>
      <path class="cls-2" d="M412.87,535.16l.94,5.72s14,1.16,17.34,3.55S423.38,536,413,533.06Z"/>
      <path class="cls-3" d="M388.79,519.08s4.1,10.21,11.58,13.65,7.82-.77,13,5.29l2.33-2.63s1.22-6.24-10.23-12.83c0,0,1.15-14-11.76-20S388.79,519.08,388.79,519.08Z"/>
      <path class="cls-3" d="M353.26,539.44S369,528,375.31,520.09l-14.5-12.48S350,510.25,349.23,537Z"/>
      <path class="cls-3" d="M375.3,468.59s-8.29-2.09-19.51-11.48l-1.57,2s10,15.63,18.46,15.62Z"/>
      <path class="cls-4" d="M373.21,528.38s-28.08,49.89,62,53.06c0,0,71.23.2,46.36-40.64,0,0-18.94-26.95-46.66-15.82,0,0,39.9,20.91-10.65,35.1,0,0-42.2,7.12-44.58-32.58Z"/>
      <path class="cls-4" d="M371.9,531.45s-13.42.3-18.34-8.56,20.53-69.57,20.53-69.57l14.54,3.32,3,11.17s12.35,51.45,8.8,60.33C393.63,533.23,371.9,531.45,371.9,531.45Z"/>
      <path class="cls-4" d="M378.68,461.81s-34,1.45-3.78-39.81c0,0,13.61,6.06,20.18,29.17C392.17,460.81,378.68,461.81,378.68,461.81Z"/>
      <path class="cls-3" d="M366.59,454.47s-6.93,15.66-6.63,20.62L371.32,457Z"/>
      <path class="cls-3" d="M383.52,455.86s3.28,10.15,11.35,15l-6.33-17.45Z"/>
      <polygon class="cls-2" points="406.87 453.55 405.12 449.17 407.86 450.1 409.78 443.91 410.38 453.84 406.87 453.55"/>
      <polygon class="cls-2" points="354.22 459.1 348.43 452.27 354.62 454.19 355.55 451.45 355.79 457.11 354.22 459.1"/>
      <path class="cls-5" d="M371.09,460.69a60.65,60.65,0,0,1,3.46-13A73,73,0,0,0,383.1,461S377,463.14,371.09,460.69Z"/>
      <path class="cls-5" d="M365.17,438.15s6.29-4.35,8.35-7.93c0,0,2.67,7.54,17.55,10.28,0,0-7.12-14.36-15.9-18.37C375.17,422.13,373.12,422.21,365.17,438.15Z"/>
      <polygon class="cls-2" points="369.5 430 374.82 422.11 381.59 430.66 369.5 430"/>
      <path class="cls-9" d="M386.55,451.88a15.72,15.72,0,0,1-9.25-6.76l7,.58Z"/>
      <ellipse class="cls-8" cx="381.99" cy="447.69" rx="1.63" ry="1.09" transform="translate(-95.47 791.75) rotate(-85.3)"/>
      <path class="cls-9" d="M364.19,450a15.71,15.71,0,0,0,10.24-5.15l-7-.58Z"/>
      <ellipse class="cls-8" cx="369.38" cy="446.65" rx="1.63" ry="1.09" transform="translate(-106.01 778.23) rotate(-85.3)"/>
    </g>
    <g id="Layer_28" data-name="Layer 28">
      <polygon class="cls-2" points="347 719 330.91 710.34 340 723 347 719"/>
      <path class="cls-3" d="M360.1,736.32s4.45-13.36-13.36-17.81L340.06,723l5.19,8.16Z"/>
      <path class="cls-4" d="M428.13,740.77s-58.63-31.17-94.26-5.94c0,0-11.87,11.88-2.22,28.95,5.79,10.25,14.79,7.39,21.07,3.47a41.92,41.92,0,0,0,7.13-5.7s20.78-11.87,38.59-2.22c0,0,27.47-.75,29.69-2.23S428.13,740.77,428.13,740.77Z"/>
      <path class="cls-5" d="M357.25,761.92a24.2,24.2,0,0,1,8.17-5.19c4.45-1.49,17.07-3.71,23.75-3v2.34S379,753.81,365.51,759a24.56,24.56,0,0,0-9,5.91Z"/>
      <polygon class="cls-2" points="331.32 773.09 307.91 779.75 319.6 768.43 331.32 773.09"/>
      <path class="cls-3" d="M358.79,753.73s7.33,19.78-27.87,19.47L319,769.11l11.17-5.57s-7.24-15,6.16-17.52S358.79,753.73,358.79,753.73Z"/>
      <polygon class="cls-2" points="408.58 774.45 421.21 783.82 417.55 776.86 421.56 777.71 416.06 772.89 408.58 774.45"/>
      <path class="cls-3" d="M396.48,750.42C395.77,750.2,383,753,393,767c0,0,3.38,3.55,16,8l8-2s-5.8-9.26-11-10C406,763,406.12,753.39,396.48,750.42Z"/>
      <path class="cls-4" d="M434.07,732.61s-28.95,3.71-17.07,17.81,22.27,16.33,22.27,16.33,5.93-5.94,5.93-7.42S448.17,749.68,434.07,732.61Z"/>
      <path class="cls-5" d="M425.16,758.65s-4.08-9.34,11.51-4.15c0,0,1.48,0,5.56,5.57a3.88,3.88,0,0,1,3.23-3.57,9.94,9.94,0,0,1-3.13,7.37,37.14,37.14,0,0,1-2.88,2.88A36.3,36.3,0,0,1,425.16,758.65Z"/>
      <path class="cls-3" d="M428.87,736.32s-1.48-17.07-3.71-17.81a57.82,57.82,0,0,1,8.91,17.07Z"/>
      <path class="cls-5" d="M426.72,734.17s8.46,7,10.69,9.94c0,0-16-6.41-19.87-5.8C417.54,738.31,424.19,734.63,426.72,734.17Z"/>
      <path class="cls-3" d="M425.16,742.26S418.48,727.41,414,723c0,0,6.68,17.07,5.2,19.3Z"/>
      <polygon class="cls-2" points="437.04 760.07 444.95 760.07 439.82 766.19 437.04 760.07"/>
      <path class="cls-4" d="M336.84,736.32s-38.59-14.85,5.94-54.92c0,0,58.63-23.75,38.59,19.29,0,0,26.72,11.14,34.89-23.75,0,0-7.42-52.69-73.48-35.62s-57.89,72.73-57.89,72.73S294.54,750.42,336.84,736.32Z"/>
      <path class="cls-9" d="M426.72,746a10.77,10.77,0,0,1,6.71,4.1h-4.85Z"/>
      <ellipse class="cls-8" cx="430.07" cy="748.56" rx="0.75" ry="1.12"/>
    </g>
    <g id="Layer_29" data-name="Layer 29">
      <path class="cls-3" d="M90.55,736.32S86.1,723,103.91,718.51l6.68,4.45-5.19,8.16Z"/>
      <polygon class="cls-2" points="103.91 718.51 120.24 710.34 110.59 722.96 103.91 718.51"/>
      <polygon class="cls-3" points="166.26 738.54 193.72 737.06 197.43 743.74 170.71 747.45 166.26 738.54"/>
      <path class="cls-2" d="M193.72,737.06s20.78,3,20.78,3.71-11.88,3-11.88,3l.75,3.71-5.94-3.71Z"/>
      <path class="cls-4" d="M178.13,740.77s-58.63-31.17-94.26-5.94c0,0-11.87,11.88-2.22,28.95,5.79,10.25,14.79,7.39,21.07,3.47a41.92,41.92,0,0,0,7.13-5.7s20.78-11.87,38.59-2.22c0,0,27.47-.75,29.69-2.23S178.13,740.77,178.13,740.77Z"/>
      <path class="cls-5" d="M107.25,761.92a24.2,24.2,0,0,1,8.17-5.19c4.45-1.49,17.07-3.71,23.75-3v2.34S129,753.81,115.51,759a24.56,24.56,0,0,0-9,5.91Z"/>
      <path class="cls-3" d="M107.62,748.19s13.36,16.33-20,27.47H75l8.76-8.89s-11.73-11.9.14-18.58S107.62,748.19,107.62,748.19Z"/>
      <polygon class="cls-2" points="74.97 775.65 94.26 790.5 87.58 775.65 74.97 775.65"/>
      <path class="cls-3" d="M145.48,750.42c-.71-.22-17.07,2.23-17.82,17.81,0,0,.75,5.94,13.36,10.39l6.68-3.71s-2.22-7.42-7.42-8.16C140.28,766.75,155.12,753.39,145.48,750.42Z"/>
      <polygon class="cls-2" points="141.02 778.62 155.87 783.82 150.3 778.25 154.38 777.88 147.7 774.91 141.02 778.62"/>
      <path class="cls-4" d="M184.07,732.61s-28.95,3.71-17.07,17.81,22.27,16.33,22.27,16.33,5.93-5.94,5.93-7.42S198.17,749.68,184.07,732.61Z"/>
      <path class="cls-5" d="M175.16,758.65s-4.08-9.34,11.51-4.15c0,0,1.48,0,5.56,5.57a3.88,3.88,0,0,1,3.23-3.57,9.94,9.94,0,0,1-3.13,7.37,37.14,37.14,0,0,1-2.88,2.88A36.3,36.3,0,0,1,175.16,758.65Z"/>
      <path class="cls-3" d="M178.87,736.32s-1.48-17.07-3.71-17.81a57.82,57.82,0,0,1,8.91,17.07Z"/>
      <path class="cls-5" d="M176.72,734.17s8.46,7,10.69,9.94c0,0-16-6.41-19.87-5.8C167.54,738.31,174.19,734.63,176.72,734.17Z"/>
      <path class="cls-3" d="M175.16,742.26S168.48,727.41,164,723c0,0,6.68,17.07,5.2,19.3Z"/>
      <polygon class="cls-2" points="187.04 760.07 194.95 760.07 189.82 766.19 187.04 760.07"/>
      <path class="cls-4" d="M86.84,736.32s-38.59-14.85,5.94-54.92c0,0,58.63-23.75,38.59,19.29,0,0,26.72,11.14,34.89-23.75,0,0-7.42-52.69-73.48-35.62s-57.89,72.73-57.89,72.73S44.54,750.42,86.84,736.32Z"/>
      <path class="cls-9" d="M176.72,746a10.77,10.77,0,0,1,6.71,4.1h-4.85Z"/>
      <ellipse class="cls-8" cx="180.07" cy="748.56" rx="0.75" ry="1.12"/>
    </g>
    <g id="Layer_31" data-name="Layer 31">
      <path class="cls-4" d="M144.87,859.5c-.31,8.73-5.85,18.86-12,27.49a78.1,78.1,0,0,1-16.63,17.22,74.88,74.88,0,0,1-17.85-17.32C93,879.4,88.29,870.8,88,863.05,95.11,846.7,134.21,844.57,144.87,859.5Z"/>
      <polygon class="cls-2" points="88.92 973.24 77.54 992.43 98.81 981.49 88.92 973.24"/>
      <polygon class="cls-2" points="145.79 974.66 157.17 991.01 137.97 983.19 145.79 974.66"/>
      <ellipse class="cls-3" cx="90.78" cy="965.84" rx="13.71" ry="20.27" transform="translate(-656.36 347.08) rotate(-45)"/>
      <ellipse class="cls-3" cx="143.21" cy="964.59" rx="20.27" ry="13.71" transform="translate(-728.43 527.33) rotate(-54.91)"/>
      <path class="cls-4" d="M127.59,941.17s19.67-67.36,29.8-82.85,20.27-47.69,39.34-39.94,4.77,51.26-7.75,70.93S133,943,130.57,944.15,127.59,941.17,127.59,941.17Z"/>
      <path class="cls-4" d="M123.51,898.21l-15.4-.33s-27,64.7-22.75,79.63c7.82,10,59.72,8.53,64,0S123.51,898.21,123.51,898.21Z"/>
      <path class="cls-5" d="M117.61,917.79s-19.91,37-14.93,49.76c12.79,5,17.06,3.56,25.59-.71C131.11,960.44,117.61,917.79,117.61,917.79Z"/>
      <polygon class="cls-3" points="128.98 855.94 133.96 828.22 136.8 858.07 128.98 855.94"/>
      <path class="cls-9" d="M98.41,864.47s7.11.71,12.8,7.82H102Z"/>
      <ellipse class="cls-8" cx="104.81" cy="869.45" rx="1.42" ry="2.13"/>
      <path class="cls-9" d="M132.54,865.18s-7.11.71-12.8,7.82H129Z"/>
      <ellipse class="cls-8" cx="126.14" cy="870.16" rx="1.42" ry="2.13"/>
      <polygon class="cls-3" points="100.55 855.94 95.57 828.22 92.72 858.07 100.55 855.94"/>
      <path d="M116.26,903.62s9.22-5.06,18.62-19.52L98,886.33S106.72,898.85,116.26,903.62Z"/>
      <rect class="cls-7" x="113" y="894.06" width="5.69" height="4.98" rx="1.15" ry="1.15"/>
      <path class="cls-5" d="M116.26,884.54s-10.73-7.15-18.77,1.51l18.77,10.42,19-12S128.18,877.39,116.26,884.54Z"/>
      <polygon class="cls-10" points="110.15 889.35 121.53 889.35 115.84 895.04 110.15 889.35"/>
      <path class="cls-5" d="M103.39,850.94s11.37,12.11,12.08,20.64c0,0,3.56-15,10.67-20.64C118.32,847.41,108.36,849.48,103.39,850.94Z"/>
      <line class="cls-11" x1="115.84" y1="895.84" x2="115.84" y2="899.4"/>
      <path class="cls-3" d="M104.23,916.52s-.61,7.93-13.53,6.74l-9.16-12.69,2.78-2.22a31.77,31.77,0,0,1,8,8.72A12.31,12.31,0,0,1,104.23,916.52Z"/>
      <path class="cls-3" d="M127.45,916.75s1.42,7.82,14.15,5.3l7.8-13.57-3-1.91a31.69,31.69,0,0,0-7.06,9.49A12.3,12.3,0,0,0,127.45,916.75Z"/>
      <path class="cls-2" d="M81.54,910.56c-5.61-6.62-6.63-8.36-6.63-8.36l7.21,3.37.9-3.44,1.3,6.22Z"/>
      <polygon class="cls-2" points="149.48 908.59 155.37 901.9 148.69 904.33 146.81 901.24 146.51 906.64 149.48 908.59"/>
    </g>
    <g id="Layer_33" data-name="Layer 33">
      <path class="cls-4" d="M59.54,1039.79s4.31-23,35.2-20.84c29.42,7.35,30.89,36.77,30.89,36.77s1.47,22.79-27.95,57.36c0,0-7.35,7.35,12.5,22.06s-20.59-2.94-20.59-2.94l-5.14-24.27L100.62,1066l-13.23-25.74-20.59-4.41Z"/>
      <path class="cls-3" d="M97,1145.43s29.07-13.51,7.35-11c-25.74,2.95-9.56-33.82-9.56-33.82,11-25,9.56-32.36,9.56-32.36s6.62-9.56-7.35-27.21c-39.71-24.27-40.45,9.56-40.45,9.56,10.3-8.83,17.65-5.88,17.65-5.88s35.3-6.62,13.24,47.06c0,0-6.62,9.56-8.09,19.86S87.39,1143.23,97,1145.43Z"/>
      <path class="cls-4" d="M146.22,1055c-.74,20.59-28.68,51.48-28.68,51.48s-29.42-28-30.15-47.8C94.74,1041.74,135.19,1039.54,146.22,1055Z"/>
      <polygon class="cls-2" points="90.33 1172.64 78.56 1192.5 100.56 1181.18 90.33 1172.64"/>
      <polygon class="cls-2" points="149.16 1174.12 160.93 1191.03 141.07 1182.94 149.16 1174.12"/>
      <ellipse class="cls-3" cx="90.84" cy="1163.78" rx="15.13" ry="22.37" transform="translate(-796.31 405.1) rotate(-45)"/>
      <ellipse class="cls-3" cx="148.7" cy="1162.4" rx="22.37" ry="15.13" transform="translate(-887.95 615.94) rotate(-54.91)"/>
      <path class="cls-4" d="M126.11,1095l-15.93-.34s-27.94,66.92-23.53,82.37c8.09,10.29,61.77,8.82,66.19,0S126.11,1095,126.11,1095Z"/>
      <path class="cls-5" d="M117.54,1115.28s-20.59,38.24-15.45,51.48c13.24,5.15,17.65,3.68,26.48-.73C131.51,1159.41,117.54,1115.28,117.54,1115.28Z"/>
      <polygon class="cls-3" points="132.25 1051.3 137.39 1022.62 140.34 1053.51 132.25 1051.3"/>
      <path class="cls-9" d="M100.62,1060.13s7.36.73,13.24,8.09H104.3Z"/>
      <ellipse class="cls-8" cx="107.24" cy="1065.28" rx="1.47" ry="2.21"/>
      <path class="cls-9" d="M135.92,1060.86s-7.35.74-13.23,8.09h9.56Z"/>
      <ellipse class="cls-8" cx="129.3" cy="1066.01" rx="1.47" ry="2.21"/>
      <polygon class="cls-3" points="102.83 1051.3 97.68 1022.62 94.74 1053.51 102.83 1051.3"/>
      <path class="cls-5" d="M116.8,1087.34s-7.56-10.52-19.59-4.89l19.59,24,19.49-25.67S124.89,1075.57,116.8,1087.34Z"/>
      <polygon class="cls-10" points="110.92 1085.87 122.69 1085.87 116.8 1091.75 110.92 1085.87"/>
      <path class="cls-5" d="M105.77,1046.13s11.77,12.53,12.5,21.35c0,0,3.68-15.5,11-21.35C121.21,1042.48,110.92,1044.62,105.77,1046.13Z"/>
      <path class="cls-11" d="M112.39,1098.37a6.18,6.18,0,0,1,8.75,0"/>
      <rect class="cls-7" x="113.86" y="1096.9" width="5.88" height="5.15" rx="1.15" ry="1.15"/>
      <line class="cls-11" x1="116.8" y1="1096.9" x2="116.8" y2="1100.58"/>
      <path class="cls-3" d="M104.3,1113.08s-8.09-1.47-10.29,11.76l10.28,12.51,2.95-2.21a32.68,32.68,0,0,0-6.62-10.3A12.73,12.73,0,0,0,104.3,1113.08Z"/>
      <path class="cls-3" d="M127.83,1113.08s8.09-1.47,10.3,11.76l-10.29,12.51-3-2.21a32.89,32.89,0,0,1,6.62-10.3A12.73,12.73,0,0,1,127.83,1113.08Z"/>
      <path class="cls-2" d="M104.3,1137.35c5.15,7.35,6.62,8.82,6.62,8.82l-1.47-8.09h3.68l-5.89-2.94Z"/>
      <polygon class="cls-2" points="127.83 1137.35 123.42 1145.43 123.42 1138.08 119.74 1137.35 124.89 1135.14 127.83 1137.35"/>
    </g>
    <g id="Layer_34" data-name="Layer 34">
      <path class="cls-4" d="M309.54,840.12s4.31-23,35.2-20.84c29.42,7.35,30.89,36.77,30.89,36.77s1.47,22.8-27.95,57.36c0,0-7.35,7.35,12.5,22.06s-20.59-2.94-20.59-2.94l-5.14-24.27,16.17-41.91-13.23-25.74-20.59-4.42Z"/>
      <path class="cls-3" d="M347,945.77s29.07-13.52,7.35-11c-25.74,2.94-9.56-33.83-9.56-33.83,11-25,9.56-32.36,9.56-32.36s6.62-9.56-7.35-27.21c-39.71-24.27-40.45,9.56-40.45,9.56,10.3-8.82,17.65-5.88,17.65-5.88s35.3-6.62,13.24,47.06c0,0-6.62,9.56-8.09,19.86S337.39,943.56,347,945.77Z"/>
      <path class="cls-4" d="M396.22,855.31c-.74,20.6-28.68,51.48-28.68,51.48s-29.42-27.94-30.15-47.8C344.74,842.08,385.19,839.87,396.22,855.31Z"/>
      <polygon class="cls-2" points="340.33 972.98 328.56 992.83 350.56 981.51 340.33 972.98"/>
      <polygon class="cls-2" points="399.16 974.45 410.93 991.36 391.07 983.27 399.16 974.45"/>
      <ellipse class="cls-3" cx="340.84" cy="964.11" rx="15.13" ry="22.37" transform="translate(-581.9 523.39) rotate(-45)"/>
      <ellipse class="cls-3" cx="398.7" cy="962.73" rx="22.37" ry="15.13" transform="translate(-618.27 735.61) rotate(-54.91)"/>
      <path class="cls-4" d="M376.11,895.37,360.18,895S332.24,962,336.65,977.39c8.09,10.3,61.77,8.82,66.19,0S376.11,895.37,376.11,895.37Z"/>
      <path class="cls-5" d="M367.54,915.62S347,953.86,352.09,967.09c13.24,5.15,17.65,3.68,26.48-.73C381.51,959.74,367.54,915.62,367.54,915.62Z"/>
      <polygon class="cls-3" points="382.25 851.64 387.39 822.96 390.33 853.84 382.25 851.64"/>
      <path class="cls-9" d="M350.62,860.46s7.36.74,13.24,8.09H354.3Z"/>
      <ellipse class="cls-8" cx="357.24" cy="865.61" rx="1.47" ry="2.21"/>
      <path class="cls-9" d="M385.92,861.2s-7.35.73-13.23,8.09h9.56Z"/>
      <ellipse class="cls-8" cx="379.3" cy="866.35" rx="1.47" ry="2.21"/>
      <polygon class="cls-3" points="352.83 851.64 347.68 822.96 344.74 853.84 352.83 851.64"/>
      <path class="cls-5" d="M366.8,887.67s-7.56-10.52-19.59-4.89l19.59,24,19.49-25.67S374.89,875.91,366.8,887.67Z"/>
      <polygon class="cls-10" points="360.92 886.2 372.69 886.2 366.8 892.08 360.92 886.2"/>
      <path class="cls-5" d="M355.77,846.46s11.77,12.53,12.5,21.36c0,0,3.68-15.51,11-21.36C371.21,842.81,360.92,845,355.77,846.46Z"/>
      <path class="cls-11" d="M362.39,898.7a6.18,6.18,0,0,1,8.75,0"/>
      <rect class="cls-7" x="363.86" y="897.23" width="5.88" height="5.15" rx="1.15" ry="1.15"/>
      <line class="cls-11" x1="366.8" y1="897.23" x2="366.8" y2="900.91"/>
      <path class="cls-3" d="M354.3,913.41s-8.09-1.47-10.29,11.77l10.28,12.5,2.95-2.21a32.58,32.58,0,0,0-6.62-10.29A12.76,12.76,0,0,0,354.3,913.41Z"/>
      <path class="cls-3" d="M377.83,913.41s8.09-1.47,10.3,11.77l-10.29,12.5-2.95-2.21a32.79,32.79,0,0,1,6.62-10.29A12.76,12.76,0,0,1,377.83,913.41Z"/>
      <path class="cls-2" d="M354.3,937.68c5.15,7.35,6.62,8.82,6.62,8.82l-1.47-8.09h3.68l-5.89-2.94Z"/>
      <polygon class="cls-2" points="377.83 937.68 373.42 945.77 373.42 938.41 369.74 937.68 374.89 935.47 377.83 937.68"/>
    </g>
    <g id="Layer_38" data-name="Layer 38">
      <path class="cls-4" d="M59.54,1239.79s4.31-23,35.2-20.84c29.42,7.35,30.89,36.77,30.89,36.77s1.47,22.79-27.95,57.36c0,0-7.35,7.35,12.5,22.06s-20.59-2.94-20.59-2.94l-5.14-24.27L100.62,1266l-13.23-25.74-20.59-4.41Z"/>
      <path class="cls-3" d="M97,1345.43s29.07-13.51,7.35-11c-25.74,2.95-9.56-33.82-9.56-33.82,11-25,9.56-32.36,9.56-32.36s6.62-9.56-7.35-27.21c-39.71-24.27-40.45,9.56-40.45,9.56,10.3-8.83,17.65-5.88,17.65-5.88s35.3-6.62,13.24,47.06c0,0-6.62,9.56-8.09,19.86S87.39,1343.23,97,1345.43Z"/>
      <path class="cls-4" d="M146.22,1255c-.74,20.59-28.68,51.48-28.68,51.48s-29.42-28-30.15-47.8C94.74,1241.74,135.19,1239.54,146.22,1255Z"/>
      <polygon class="cls-2" points="90.33 1372.64 78.56 1392.5 100.56 1381.18 90.33 1372.64"/>
      <polygon class="cls-2" points="149.16 1374.12 160.93 1391.03 141.07 1382.94 149.16 1374.12"/>
      <ellipse class="cls-3" cx="90.84" cy="1363.78" rx="15.13" ry="22.37" transform="translate(-937.73 463.68) rotate(-45)"/>
      <ellipse class="cls-3" cx="148.7" cy="1362.4" rx="22.37" ry="15.13" transform="translate(-1051.61 700.98) rotate(-54.91)"/>
      <path class="cls-4" d="M126.11,1295l-15.93-.34s-27.94,66.92-23.53,82.37c8.09,10.29,61.77,8.82,66.19,0S126.11,1295,126.11,1295Z"/>
      <path class="cls-5" d="M117.54,1315.28s-20.59,38.24-15.45,51.48c13.24,5.15,17.65,3.68,26.48-.73C131.51,1359.41,117.54,1315.28,117.54,1315.28Z"/>
      <polygon class="cls-3" points="132.25 1251.3 137.39 1222.62 140.34 1253.51 132.25 1251.3"/>
      <path class="cls-9" d="M100.62,1260.13s7.36.73,13.24,8.09H104.3Z"/>
      <ellipse class="cls-8" cx="107.24" cy="1265.28" rx="1.47" ry="2.21"/>
      <path class="cls-9" d="M135.92,1260.86s-7.35.74-13.23,8.09h9.56Z"/>
      <ellipse class="cls-8" cx="129.3" cy="1266.01" rx="1.47" ry="2.21"/>
      <polygon class="cls-3" points="102.83 1251.3 97.68 1222.62 94.74 1253.51 102.83 1251.3"/>
      <path class="cls-5" d="M116.8,1287.34s-7.56-10.52-19.59-4.89l19.59,24,19.49-25.67S124.89,1275.57,116.8,1287.34Z"/>
      <polygon class="cls-10" points="110.92 1285.87 122.69 1285.87 116.8 1291.75 110.92 1285.87"/>
      <path class="cls-5" d="M105.77,1246.13s11.77,12.53,12.5,21.35c0,0,3.68-15.5,11-21.35C121.21,1242.48,110.92,1244.62,105.77,1246.13Z"/>
      <path class="cls-11" d="M112.39,1298.37a6.18,6.18,0,0,1,8.75,0"/>
      <rect class="cls-7" x="113.86" y="1296.9" width="5.88" height="5.15" rx="1.15" ry="1.15"/>
      <line class="cls-11" x1="116.8" y1="1296.9" x2="116.8" y2="1300.58"/>
      <path class="cls-3" d="M104.3,1313.08s-8.09-1.47-10.29,11.76l10.28,12.51,2.95-2.21a32.68,32.68,0,0,0-6.62-10.3A12.73,12.73,0,0,0,104.3,1313.08Z"/>
      <path class="cls-3" d="M127.83,1313.08s8.09-1.47,10.3,11.76l-10.29,12.51-3-2.21a32.89,32.89,0,0,1,6.62-10.3A12.73,12.73,0,0,1,127.83,1313.08Z"/>
      <path class="cls-2" d="M104.3,1337.35c5.15,7.35,6.62,8.82,6.62,8.82l-1.47-8.09h3.68l-5.89-2.94Z"/>
      <polygon class="cls-2" points="127.83 1337.35 123.42 1345.43 123.42 1338.08 119.74 1337.35 124.89 1335.14 127.83 1337.35"/>
      <rect class="cls-12" x="30" y="1209" width="180" height="185.5"/>
      <rect class="cls-12" x="50.5" y="1209.5" width="137" height="185"/>
      <rect class="cls-12" x="73.5" y="1209.5" width="91" height="185"/>
      <rect class="cls-12" x="96.5" y="1209.5" width="43" height="185"/>
    </g>
  </g>
</svg>
