<svg xmlns="http://www.w3.org/2000/svg" viewBox="0 0 600 700">
  <defs>
    <style>
      .cls-1 {
        fill: #57a794;
      }

      .cls-2 {
        fill: #1060c1;
      }

      .cls-3 {
        fill: #fddfb7;
      }

      .cls-4 {
        fill: #bda17c;
      }

      .cls-5 {
        fill: #fff;
      }

      .cls-6 {
        fill: #0b7998;
      }
    </style>
  </defs>
  <title>Fugle2</title>
  <g id="sprite">
    <polygon class="cls-1" points="94.06 63.14 94.06 29.64 120.64 42.75 94.06 63.14"/>
    <g>
      <rect x="76" y="68" width="2" height="10" rx="1" ry="1" transform="translate(46.82 -28.72) rotate(30)"/>
      <rect x="77.03" y="64.86" width="2" height="5.87" rx="1" ry="1" transform="translate(-23.44 48.1) rotate(-30)"/>
      <path d="M72.5,77,71,76l-1.5,1a.5.5,0,0,1-.5-.5h0a.5.5,0,0,1,.5-.5L71,75l1.5,1a.5.5,0,0,1,.5.5h0A.5.5,0,0,1,72.5,77Z"/>
      <path d="M73.5,78,72,77l-1.5,1a.5.5,0,0,1-.5-.5h0a.5.5,0,0,1,.5-.5L72,76l1.5,1a.5.5,0,0,1,.5.5h0A.5.5,0,0,1,73.5,78Z"/>
      <rect x="71" y="77" width="4" height="1" rx="0.5" ry="0.5" transform="translate(-32.1 60.48) rotate(-37.51)"/>
      <rect x="72" y="75" width="4" height="3" rx="1.5" ry="1.5"/>
    </g>
    <path class="cls-2" d="M98.73,58c.7,12.69-17.93,13.7-29.38,10.38s-19.41-17.76-15-29.27,14.13-9.59,23.12-4.85S98,45.3,98.73,58Z"/>
    <circle class="cls-1" cx="60.5" cy="25.5" r="10.5"/>
    <path class="cls-3" d="M42.6,24.42l7.62-1.9a.62.62,0,0,1,.78.6v3.81a.62.62,0,0,1-.78.6l-7.62-1.9A.62.62,0,0,1,42.6,24.42Z"/>
    <path class="cls-4" d="M50.45,27.19l2.08,2.07c-.8-.13-1.63-.31-2.46-.51-4-1-7.13-2.49-6.92-3.34v0Z"/>
    <circle class="cls-5" cx="57" cy="22" r="2"/>
    <circle cx="57" cy="22" r="1"/>
    <g>
      <rect x="83" y="71" width="2" height="10" rx="1" ry="1" transform="translate(49.25 -31.82) rotate(30)"/>
      <rect x="84.03" y="67.86" width="2" height="5.87" rx="1" ry="1" transform="translate(-24 52) rotate(-30)"/>
      <rect x="79" y="78" width="4" height="3" rx="1.5" ry="1.5"/>
      <path d="M79.5,80,78,79l-1.5,1a.5.5,0,0,1-.5-.5h0a.5.5,0,0,1,.5-.5L78,78l1.5,1a.5.5,0,0,1,.5.5h0A.5.5,0,0,1,79.5,80Z"/>
      <path d="M80.5,81,79,80l-1.5,1a.5.5,0,0,1-.5-.5h0a.5.5,0,0,1,.5-.5L79,79l1.5,1a.5.5,0,0,1,.5.5h0A.5.5,0,0,1,80.5,81Z"/>
      <rect x="78" y="80" width="4" height="1" rx="0.5" ry="0.5" transform="translate(-32.48 65.36) rotate(-37.51)"/>
    </g>
    <path class="cls-1" d="M63,39S73,29,83,49l20,20S62,60,61,55C56,52,57,42,63,39Z"/>
    <polygon class="cls-1" points="244.06 63.14 244.06 29.64 270.64 42.75 244.06 63.14"/>
    <g>
      <rect x="226" y="68" width="2" height="10" rx="1" ry="1" transform="translate(66.91 -103.72) rotate(30)"/>
      <rect x="227.03" y="64.86" width="2" height="5.87" rx="1" ry="1" transform="translate(-3.34 123.1) rotate(-30)"/>
      <path d="M222.5,77,221,76l-1.5,1a.5.5,0,0,1-.5-.5h0a.5.5,0,0,1,.5-.5l1.5-1,1.5,1a.5.5,0,0,1,.5.5h0A.5.5,0,0,1,222.5,77Z"/>
      <path d="M223.5,78,222,77l-1.5,1a.5.5,0,0,1-.5-.5h0a.5.5,0,0,1,.5-.5l1.5-1,1.5,1a.5.5,0,0,1,.5.5h0A.5.5,0,0,1,223.5,78Z"/>
      <rect x="221" y="77" width="4" height="1" rx="0.5" ry="0.5" transform="translate(-1.08 151.82) rotate(-37.51)"/>
      <rect x="222" y="75" width="4" height="3" rx="1.5" ry="1.5"/>
    </g>
    <path class="cls-2" d="M248.73,58c.7,12.69-17.93,13.7-29.38,10.38s-19.41-17.76-15-29.27,14.13-9.59,23.12-4.85S248,45.3,248.73,58Z"/>
    <circle class="cls-1" cx="210.5" cy="25.5" r="10.5"/>
    <path class="cls-3" d="M192.6,24.42l7.62-1.9a.62.62,0,0,1,.78.6v3.81a.62.62,0,0,1-.78.6l-7.62-1.9A.62.62,0,0,1,192.6,24.42Z"/>
    <path class="cls-4" d="M200.45,27.19l2.92-.24c-.62.52-1.29,1-2,1.54-3.34,2.42-6.52,3.82-7,3.11h0Z"/>
    <circle class="cls-5" cx="207" cy="22" r="2"/>
    <circle cx="207" cy="22" r="1"/>
    <g>
      <rect x="233" y="71" width="2" height="10" rx="1" ry="1" transform="matrix(0.87, 0.5, -0.5, 0.87, 69.35, -106.82)"/>
      <rect x="234.03" y="67.86" width="2" height="5.87" rx="1" ry="1" transform="translate(-3.91 127) rotate(-30)"/>
      <rect x="229" y="78" width="4" height="3" rx="1.5" ry="1.5"/>
      <path d="M229.5,80,228,79l-1.5,1a.5.5,0,0,1-.5-.5h0a.5.5,0,0,1,.5-.5l1.5-1,1.5,1a.5.5,0,0,1,.5.5h0A.5.5,0,0,1,229.5,80Z"/>
      <path d="M230.5,81,229,80l-1.5,1a.5.5,0,0,1-.5-.5h0a.5.5,0,0,1,.5-.5l1.5-1,1.5,1a.5.5,0,0,1,.5.5h0A.5.5,0,0,1,230.5,81Z"/>
      <rect x="228" y="80" width="4" height="1" rx="0.5" ry="0.5" transform="translate(-1.46 156.7) rotate(-37.51)"/>
    </g>
    <path class="cls-1" d="M213,39s10-10,20,10l20,20s-41-9-42-14C206,52,207,42,213,39Z"/>
    <polygon class="cls-1" points="94.06 163.14 94.06 129.64 120.64 142.75 94.06 163.14"/>
    <g>
      <rect x="76" y="168" width="2" height="10" rx="1" ry="1" transform="translate(96.82 -15.32) rotate(30)"/>
      <rect x="77.03" y="164.86" width="2" height="5.87" rx="1" ry="1" transform="translate(-73.44 61.5) rotate(-30)"/>
      <path d="M72.5,177,71,176l-1.5,1a.5.5,0,0,1-.5-.5h0a.5.5,0,0,1,.5-.5l1.5-1,1.5,1a.5.5,0,0,1,.5.5h0A.5.5,0,0,1,72.5,177Z"/>
      <path d="M73.5,178,72,177l-1.5,1a.5.5,0,0,1-.5-.5h0a.5.5,0,0,1,.5-.5l1.5-1,1.5,1a.5.5,0,0,1,.5.5h0A.5.5,0,0,1,73.5,178Z"/>
      <rect x="71" y="177" width="4" height="1" rx="0.5" ry="0.5" transform="translate(-92.99 81.15) rotate(-37.51)"/>
      <rect x="72" y="175" width="4" height="3" rx="1.5" ry="1.5"/>
    </g>
    <path class="cls-2" d="M98.73,158c.7,12.69-17.93,13.7-29.38,10.38s-19.41-17.76-15-29.27,14.13-9.59,23.12-4.85S98,145.3,98.73,158Z"/>
    <circle class="cls-1" cx="60.5" cy="125.5" r="10.5"/>
    <path class="cls-3" d="M42.6,124.42l7.62-1.9a.62.62,0,0,1,.78.6v3.81a.62.62,0,0,1-.78.6l-7.62-1.9A.62.62,0,0,1,42.6,124.42Z"/>
    <path class="cls-4" d="M50.45,127.19l2.08,2.07c-.8-.13-1.63-.31-2.46-.51-4-1-7.13-2.49-6.92-3.34v0Z"/>
    <circle class="cls-5" cx="57" cy="122" r="2"/>
    <circle cx="57" cy="122" r="1"/>
    <g>
      <rect x="83" y="171" width="2" height="10" rx="1" ry="1" transform="matrix(0.87, 0.5, -0.5, 0.87, 99.25, -18.42)"/>
      <rect x="84.03" y="167.86" width="2" height="5.87" rx="1" ry="1" transform="translate(-74 65.4) rotate(-30)"/>
      <rect x="79" y="178" width="4" height="3" rx="1.5" ry="1.5"/>
      <path d="M79.5,180,78,179l-1.5,1a.5.5,0,0,1-.5-.5h0a.5.5,0,0,1,.5-.5l1.5-1,1.5,1a.5.5,0,0,1,.5.5h0A.5.5,0,0,1,79.5,180Z"/>
      <path d="M80.5,181,79,180l-1.5,1a.5.5,0,0,1-.5-.5h0a.5.5,0,0,1,.5-.5l1.5-1,1.5,1a.5.5,0,0,1,.5.5h0A.5.5,0,0,1,80.5,181Z"/>
      <rect x="78" y="180" width="4" height="1" rx="0.5" ry="0.5" transform="translate(-93.37 86.04) rotate(-37.51)"/>
    </g>
    <path class="cls-1" d="M63,139s10-10,20,10l20,20s-41-9-42-14C56,152,57,142,63,139Z"/>
    <polygon class="cls-1" points="227.41 140.56 238.17 108.84 259.13 129.79 227.41 140.56"/>
    <g>
      <rect x="226" y="168" width="2" height="10" rx="1" ry="1" transform="translate(116.91 -90.32) rotate(30)"/>
      <rect x="227.03" y="164.86" width="2" height="5.87" rx="1" ry="1" transform="translate(-53.34 136.5) rotate(-30)"/>
      <path d="M222.5,177l-1.5-1-1.5,1a.5.5,0,0,1-.5-.5h0a.5.5,0,0,1,.5-.5l1.5-1,1.5,1a.5.5,0,0,1,.5.5h0A.5.5,0,0,1,222.5,177Z"/>
      <path d="M223.5,178l-1.5-1-1.5,1a.5.5,0,0,1-.5-.5h0a.5.5,0,0,1,.5-.5l1.5-1,1.5,1a.5.5,0,0,1,.5.5h0A.5.5,0,0,1,223.5,178Z"/>
      <rect x="221" y="177" width="4" height="1" rx="0.5" ry="0.5" transform="translate(-61.97 172.49) rotate(-37.51)"/>
      <rect x="222" y="175" width="4" height="3" rx="1.5" ry="1.5"/>
    </g>
    <path class="cls-2" d="M233.86,134.79c12.44,2.62,8.56,20.87,2.38,31.06S214,180,204.08,172.71s-5.59-16.14,1.33-23.58S221.42,132.16,233.86,134.79Z"/>
    <circle class="cls-1" cx="192.54" cy="163.24" r="10.5"/>
    <path class="cls-3" d="M186.84,180.24l.14-7.85a.62.62,0,0,1,.79-.59l3.67,1a.63.63,0,0,1,.39.91L188,180.56A.62.62,0,0,1,186.84,180.24Z"/>
    <path class="cls-4" d="M191.56,173.38l2.53-1.46c-.33.73-.72,1.49-1.13,2.24-2,3.61-4.26,6.24-5,5.81h0Z"/>
    <circle class="cls-5" cx="188.25" cy="165.71" r="2"/>
    <circle cx="188.25" cy="165.71" r="1"/>
    <g>
      <rect x="233" y="171" width="2" height="10" rx="1" ry="1" transform="translate(119.35 -93.42) rotate(30)"/>
      <rect x="234.03" y="167.86" width="2" height="5.87" rx="1" ry="1" transform="translate(-53.91 140.4) rotate(-30)"/>
      <rect x="229" y="178" width="4" height="3" rx="1.5" ry="1.5"/>
      <path d="M229.5,180l-1.5-1-1.5,1a.5.5,0,0,1-.5-.5h0a.5.5,0,0,1,.5-.5l1.5-1,1.5,1a.5.5,0,0,1,.5.5h0A.5.5,0,0,1,229.5,180Z"/>
      <path d="M230.5,181l-1.5-1-1.5,1a.5.5,0,0,1-.5-.5h0a.5.5,0,0,1,.5-.5l1.5-1,1.5,1a.5.5,0,0,1,.5.5h0A.5.5,0,0,1,230.5,181Z"/>
      <rect x="228" y="180" width="4" height="1" rx="0.5" ry="0.5" transform="translate(-62.35 177.38) rotate(-37.51)"/>
    </g>
    <path class="cls-1" d="M206.22,164.34s-7.05-12.26,14.86-16.71l24.51-14.11s-19.35,37.25-24.44,36.91C217,174.48,207.56,170.91,206.22,164.34Z"/>
    <polygon class="cls-1" points="94.06 263.14 94.06 229.64 120.64 242.75 94.06 263.14"/>
    <g>
      <rect x="76" y="268" width="2" height="10" rx="1" ry="1" transform="translate(146.82 -1.92) rotate(30)"/>
      <rect x="77.03" y="264.86" width="2" height="5.87" rx="1" ry="1" transform="translate(-123.44 74.89) rotate(-30)"/>
      <path d="M72.5,277,71,276l-1.5,1a.5.5,0,0,1-.5-.5h0a.5.5,0,0,1,.5-.5l1.5-1,1.5,1a.5.5,0,0,1,.5.5h0A.5.5,0,0,1,72.5,277Z"/>
      <path d="M73.5,278,72,277l-1.5,1a.5.5,0,0,1-.5-.5h0a.5.5,0,0,1,.5-.5l1.5-1,1.5,1a.5.5,0,0,1,.5.5h0A.5.5,0,0,1,73.5,278Z"/>
      <rect x="71" y="277" width="4" height="1" rx="0.5" ry="0.5" transform="translate(-153.88 101.83) rotate(-37.51)"/>
      <rect x="72" y="275" width="4" height="3" rx="1.5" ry="1.5"/>
    </g>
    <path class="cls-2" d="M98.73,258c.7,12.69-17.93,13.7-29.38,10.38s-19.41-17.76-15-29.27,14.13-9.59,23.12-4.85S98,245.3,98.73,258Z"/>
    <circle class="cls-1" cx="60.5" cy="225.5" r="10.5"/>
    <path class="cls-3" d="M42.6,224.42l7.62-1.9a.62.62,0,0,1,.78.6v3.81a.62.62,0,0,1-.78.6l-7.62-1.9A.62.62,0,0,1,42.6,224.42Z"/>
    <path class="cls-4" d="M50.45,227.19l2.08,2.07c-.8-.13-1.63-.31-2.46-.51-4-1-7.13-2.49-6.92-3.34v0Z"/>
    <circle class="cls-5" cx="57" cy="222" r="2"/>
    <circle cx="57" cy="222" r="1"/>
    <g>
      <rect x="83" y="271" width="2" height="10" rx="1" ry="1" transform="translate(149.25 -5.02) rotate(30)"/>
      <rect x="84.03" y="267.86" width="2" height="5.87" rx="1" ry="1" transform="translate(-124 78.8) rotate(-30)"/>
      <rect x="79" y="278" width="4" height="3" rx="1.5" ry="1.5"/>
      <path d="M79.5,280,78,279l-1.5,1a.5.5,0,0,1-.5-.5h0a.5.5,0,0,1,.5-.5l1.5-1,1.5,1a.5.5,0,0,1,.5.5h0A.5.5,0,0,1,79.5,280Z"/>
      <path d="M80.5,281,79,280l-1.5,1a.5.5,0,0,1-.5-.5h0a.5.5,0,0,1,.5-.5l1.5-1,1.5,1a.5.5,0,0,1,.5.5h0A.5.5,0,0,1,80.5,281Z"/>
      <rect x="78" y="280" width="4" height="1" rx="0.5" ry="0.5" transform="translate(-154.26 106.72) rotate(-37.51)"/>
    </g>
    <path class="cls-1" d="M63,239s10-10,20,10l20,20s-41-9-42-14C56,252,57,242,63,239Z"/>
    <polygon class="cls-1" points="244.06 263.85 244.06 233.84 270.64 245.59 244.06 263.85"/>
    <path class="cls-6" d="M215.61,255.77s-10-9,10-17.9l20-17.87s-9.1,36.71-14.1,37.6C228.59,262.07,218.59,261.15,215.61,255.77Z"/>
    <rect x="225.01" y="266.42" width="2" height="10" rx="1" ry="1" transform="translate(357.47 -56.4) rotate(61.63)"/>
    <rect x="227.03" y="264.86" width="2" height="5.87" rx="1" ry="1" transform="translate(-103.34 149.89) rotate(-30)"/>
    <path d="M220.36,274.66l-1.76-.39-1,1.47a.51.51,0,0,1-.65-.28h0a.51.51,0,0,1,.28-.65l1-1.48,1.76.4a.5.5,0,0,1,.65.28h0A.5.5,0,0,1,220.36,274.66Z"/>
    <path d="M221.66,275.23l-1.76-.39-1,1.47a.51.51,0,0,1-.65-.28h0a.5.5,0,0,1,.29-.65l1-1.47,1.76.39a.51.51,0,0,1,.65.28h0A.51.51,0,0,1,221.66,275.23Z"/>
    <rect x="219.01" y="274.44" width="4" height="1" rx="0.5" ry="0.5" transform="translate(-128.74 320.92) rotate(-58.69)"/>
    <rect x="219.58" y="272.15" width="4" height="3" rx="1.5" ry="1.5" transform="translate(-83.91 98.56) rotate(-21.18)"/>
    <path class="cls-2" d="M248.73,259.25c.7,11.37-17.93,12.27-29.38,9.29s-19.41-15.9-15-26.21,14.13-8.6,23.12-4.35S248,247.88,248.73,259.25Z"/>
    <ellipse class="cls-1" cx="210.21" cy="231.88" rx="10.5" ry="9.41"/>
    <path class="cls-3" d="M195.5,222.94l7.3,1.94a.63.63,0,0,1,.36,1l-1.87,2.85a.64.64,0,0,1-.94.12L194.93,224A.62.62,0,0,1,195.5,222.94Z"/>
    <path class="cls-4" d="M200.69,228.61l.74,2.54c-.62-.46-1.25-1-1.86-1.51-2.95-2.58-4.88-5.17-4.26-5.73h0Z"/>
    <ellipse class="cls-5" cx="207" cy="227" rx="2" ry="1.79"/>
    <ellipse cx="207" cy="227" rx="1" ry="0.9"/>
    <rect x="230.99" y="269.48" width="2" height="10" rx="1" ry="1" transform="translate(371.3 -56.81) rotate(63.01)"/>
    <rect x="234.03" y="267.86" width="2" height="5.87" rx="1" ry="1" transform="translate(-103.91 153.8) rotate(-30)"/>
    <rect x="225.6" y="275.18" width="4" height="3" rx="1.5" ry="1.5" transform="translate(-69.11 75.89) rotate(-16.47)"/>
    <path d="M226.31,277.58l-1.72-.53-1.16,1.38a.5.5,0,0,1-.62-.33h0a.5.5,0,0,1,.34-.63l1.15-1.38,1.72.53a.52.52,0,0,1,.63.34h0A.51.51,0,0,1,226.31,277.58Z"/>
    <path d="M227.55,278.26l-1.72-.54-1.16,1.39a.51.51,0,0,1-.62-.34h0a.51.51,0,0,1,.34-.62l1.16-1.38,1.72.53a.5.5,0,0,1,.62.34h0A.51.51,0,0,1,227.55,278.26Z"/>
    <rect x="224.93" y="277.42" width="4" height="1" rx="0.5" ry="0.5" transform="translate(-131.3 298.05) rotate(-53.98)"/>
    <path class="cls-1" d="M213.33,250s-2.82-12.41,19.38-10L260.42,235s-30.13,26.18-34.85,24.45C220.31,261.65,212.52,256,213.33,250Z"/>
    <polygon class="cls-1" points="89.5 357.47 127.25 363.88 117.57 383.52 89.5 357.47"/>
    <path class="cls-1" d="M64.62,343.55s-6.84,12.11,12.19,19.89l20.8,18.46s-15.07-42.45-19.55-42.79C74.58,334.21,66.14,336.71,64.62,343.55Z"/>
    <rect x="88.2" y="364.07" width="2" height="10" rx="1" ry="1" transform="translate(-257.07 213.29) rotate(-52.19)"/>
    <path d="M94.78,372.66l.74,1.64,1.8-.06a.49.49,0,0,1,.16.69h0a.49.49,0,0,1-.68.16l-1.81.06-.74-1.64a.49.49,0,0,1-.16-.69h0A.49.49,0,0,1,94.78,372.66Z"/>
    <path d="M94.46,371.28l.74,1.64,1.8-.06a.49.49,0,0,1,.16.69h0a.49.49,0,0,1-.69.16l-1.8.06-.74-1.64a.49.49,0,0,1-.16-.69h0A.5.5,0,0,1,94.46,371.28Z"/>
    <rect x="92.62" y="371.47" width="4" height="1" rx="0.5" ry="0.5" transform="translate(225.2 732.88) rotate(174.38)"/>
    <rect x="91.24" y="370.79" width="4" height="3" rx="1.5" ry="1.5" transform="translate(-24.29 737.64) rotate(-148.11)"/>
    <path class="cls-2" d="M100,358c.7,12.69-17.93,13.7-29.38,10.38s-19.41-17.76-15-29.27,14.13-9.59,23.12-4.85S99.27,345.3,100,358Z"/>
    <rect x="84.25" y="370" width="2" height="10" rx="1" ry="1" transform="translate(-240.2 170.12) rotate(-45)"/>
    <rect x="80.28" y="366.86" width="2" height="5.87" rx="1" ry="1" transform="translate(-100.18 37.49) rotate(-16.24)"/>
    <rect x="86.62" y="377.37" width="4" height="3" rx="1.5" ry="1.5" transform="translate(-199.8 640.03) rotate(-119)"/>
    <path d="M89.79,379.94l-.15,1.79,1.6.83a.49.49,0,0,1-.19.68h0a.51.51,0,0,1-.68-.2l-1.6-.82.14-1.8a.51.51,0,0,1,.2-.68h0A.5.5,0,0,1,89.79,379.94Z"/>
    <path d="M90.18,378.58,90,380.37l1.6.83a.49.49,0,0,1-.19.68h0a.5.5,0,0,1-.68-.2l-1.6-.82.14-1.8a.51.51,0,0,1,.2-.68h0A.51.51,0,0,1,90.18,378.58Z"/>
    <rect x="87.98" y="378.76" width="4" height="1" rx="0.5" ry="0.5" transform="translate(21.32 762.95) rotate(-156.51)"/>
    <path class="cls-1" d="M72.64,341.8S85.9,346,77.32,364.66l-2.59,27.69s-18-41.3-14.94-44.61C59,341.78,66.86,337.85,72.64,341.8Z"/>
    <ellipse class="cls-1" cx="58.46" cy="328.88" rx="10.5" ry="9.41"/>
    <path class="cls-3" d="M43.75,319.94l7.3,1.94a.63.63,0,0,1,.36.95l-1.87,2.85a.64.64,0,0,1-.94.12L43.18,321A.62.62,0,0,1,43.75,319.94Z"/>
    <path class="cls-4" d="M48.94,325.61l.74,2.54c-.62-.46-1.25-1-1.86-1.51-3-2.58-4.88-5.17-4.26-5.73h0Z"/>
    <ellipse class="cls-5" cx="55.25" cy="324" rx="2" ry="1.79"/>
    <ellipse cx="55.25" cy="324" rx="1" ry="0.9"/>
    <polygon class="cls-1" points="388.25 357.47 426 363.88 416.32 383.52 388.25 357.47"/>
    <rect x="386.95" y="364.07" width="2" height="10" rx="1" ry="1" transform="translate(-141.47 449.32) rotate(-52.19)"/>
    <path d="M393.53,372.66l.74,1.64,1.8-.06a.49.49,0,0,1,.16.69h0a.49.49,0,0,1-.68.16l-1.81.06-.74-1.64a.49.49,0,0,1-.16-.69h0A.49.49,0,0,1,393.53,372.66Z"/>
    <path d="M393.21,371.28l.74,1.64,1.8-.06a.49.49,0,0,1,.16.69h0a.49.49,0,0,1-.69.16l-1.8.06-.74-1.64a.49.49,0,0,1-.16-.69h0A.5.5,0,0,1,393.21,371.28Z"/>
    <rect x="391.37" y="371.47" width="4" height="1" rx="0.5" ry="0.5" transform="translate(821.26 703.63) rotate(174.38)"/>
    <rect x="389.99" y="370.79" width="4" height="3" rx="1.5" ry="1.5" transform="translate(528.11 895.48) rotate(-148.11)"/>
    <path class="cls-1" d="M365.18,359.5s13.84,1.37,13.3-19.18L387,313.84S354.21,344.75,355.7,349C352.62,354.16,358.32,360.87,365.18,359.5Z"/>
    <path class="cls-2" d="M398.73,358c.7,12.69-17.93,13.7-29.38,10.38s-19.41-17.76-15-29.27,14.13-9.59,23.12-4.85S398,345.3,398.73,358Z"/>
    <rect x="383" y="370" width="2" height="10" rx="1" ry="1" transform="translate(-152.69 381.36) rotate(-45)"/>
    <rect x="379.03" y="366.86" width="2" height="5.87" rx="1" ry="1" transform="translate(-88.26 121.05) rotate(-16.24)"/>
    <rect x="385.37" y="377.37" width="4" height="3" rx="1.5" ry="1.5" transform="translate(243.77 901.34) rotate(-119)"/>
    <path d="M388.54,379.94l-.15,1.79,1.6.83a.49.49,0,0,1-.19.68h0a.51.51,0,0,1-.68-.2l-1.6-.82.14-1.8a.51.51,0,0,1,.2-.68h0A.5.5,0,0,1,388.54,379.94Z"/>
    <path d="M388.93,378.58l-.15,1.79,1.6.83a.49.49,0,0,1-.19.68h0a.5.5,0,0,1-.68-.2l-1.6-.82.14-1.8a.51.51,0,0,1,.2-.68h0A.51.51,0,0,1,388.93,378.58Z"/>
    <rect x="386.73" y="378.76" width="4" height="1" rx="0.5" ry="0.5" transform="translate(594.06 882.04) rotate(-156.51)"/>
    <path class="cls-1" d="M361.13,351.8s-4.58-13.13,15.52-17.43L400.4,319.9s-22.35,39.1-26.83,38.65C369.28,362.76,361.41,358.79,361.13,351.8Z"/>
    <ellipse class="cls-1" cx="357.21" cy="328.88" rx="10.5" ry="9.41"/>
    <path class="cls-3" d="M342.5,319.94l7.3,1.94a.63.63,0,0,1,.36.95l-1.87,2.85a.64.64,0,0,1-.94.12L341.93,321A.62.62,0,0,1,342.5,319.94Z"/>
    <path class="cls-4" d="M347.69,325.61l2.09,1.62c-.77,0-1.58-.05-2.39-.12-3.91-.36-7-1.32-6.82-2.14h0Z"/>
    <ellipse class="cls-5" cx="354" cy="324" rx="2" ry="1.79"/>
    <ellipse cx="354" cy="324" rx="1" ry="0.9"/>
    <polygon class="cls-1" points="238.25 357.47 276 363.88 266.32 383.52 238.25 357.47"/>
    <rect x="236.95" y="364.07" width="2" height="10" rx="1" ry="1" transform="translate(-199.51 330.81) rotate(-52.19)"/>
    <path d="M243.53,372.66l.74,1.64,1.8-.06a.49.49,0,0,1,.16.69h0a.49.49,0,0,1-.68.16l-1.81.06-.74-1.64a.49.49,0,0,1-.16-.69h0A.49.49,0,0,1,243.53,372.66Z"/>
    <path d="M243.21,371.28l.74,1.64,1.8-.06a.49.49,0,0,1,.16.69h0a.49.49,0,0,1-.69.16l-1.8.06-.74-1.64a.49.49,0,0,1-.16-.69h0A.5.5,0,0,1,243.21,371.28Z"/>
    <rect x="241.37" y="371.47" width="4" height="1" rx="0.5" ry="0.5" transform="translate(521.98 718.32) rotate(174.38)"/>
    <rect x="239.99" y="370.79" width="4" height="3" rx="1.5" ry="1.5" transform="matrix(-0.85, -0.53, 0.53, -0.85, 250.75, 816.23)"/>
    <path class="cls-1" d="M215.07,355.49s7.89,11.45,23.22-2.24L264,342.63s-44.76-5.05-47-1.16C211,342.45,209.59,351.13,215.07,355.49Z"/>
    <path class="cls-2" d="M248.73,358c.7,12.69-17.93,13.7-29.38,10.38s-19.41-17.76-15-29.27,14.13-9.59,23.12-4.85S248,345.3,248.73,358Z"/>
    <rect x="233" y="370" width="2" height="10" rx="1" ry="1" transform="translate(-196.63 275.3) rotate(-45)"/>
    <rect x="229.03" y="366.86" width="2" height="5.87" rx="1" ry="1" transform="translate(-94.25 79.1) rotate(-16.24)"/>
    <rect x="235.37" y="377.37" width="4" height="3" rx="1.5" ry="1.5" transform="translate(21.06 770.14) rotate(-119)"/>
    <path d="M238.54,379.94l-.15,1.79,1.6.83a.49.49,0,0,1-.19.68h0a.51.51,0,0,1-.68-.2l-1.6-.82.14-1.8a.51.51,0,0,1,.2-.68h0A.5.5,0,0,1,238.54,379.94Z"/>
    <path d="M238.93,378.58l-.15,1.79,1.6.83a.49.49,0,0,1-.19.68h0a.5.5,0,0,1-.68-.2l-1.6-.82.14-1.8a.51.51,0,0,1,.2-.68h0A.51.51,0,0,1,238.93,378.58Z"/>
    <rect x="236.73" y="378.76" width="4" height="1" rx="0.5" ry="0.5" transform="translate(306.49 822.24) rotate(-156.51)"/>
    <path class="cls-1" d="M216.83,339.47s13.1-4.67,17.53,15.4L249,378.52S209.74,356.44,210.17,352C205.93,347.69,209.84,339.8,216.83,339.47Z"/>
    <ellipse class="cls-1" cx="207.21" cy="328.88" rx="10.5" ry="9.41"/>
    <path class="cls-3" d="M192.5,319.94l7.3,1.94a.63.63,0,0,1,.36.95l-1.87,2.85a.64.64,0,0,1-.94.12L191.93,321A.62.62,0,0,1,192.5,319.94Z"/>
    <path class="cls-4" d="M197.69,325.61l.74,2.54c-.62-.46-1.25-1-1.86-1.51-2.95-2.58-4.88-5.17-4.26-5.73h0Z"/>
    <ellipse class="cls-5" cx="204" cy="324" rx="2" ry="1.79"/>
    <ellipse cx="204" cy="324" rx="1" ry="0.9"/>
    <polygon class="cls-1" points="89.6 454.67 124.2 438.26 127.53 459.91 89.6 454.67"/>
    <path class="cls-1" d="M61.23,457.53s1.35,13.85,21.4,9.31L110.26,470S73.57,443.9,69.69,446.19C64,444.17,58.55,451.07,61.23,457.53Z"/>
    <rect x="95.01" y="459.35" width="2" height="10" rx="1" ry="1" transform="translate(-372.49 537.48) rotate(-87.19)"/>
    <path d="M102.63,464.08l1.55.92,1.45-1.08a.5.5,0,0,1,.52.47h0a.5.5,0,0,1-.47.53L104.24,466l-1.55-.92a.5.5,0,0,1-.53-.47h0A.51.51,0,0,1,102.63,464.08Z"/>
    <path d="M101.58,463.14l1.55.92,1.45-1.08a.49.49,0,0,1,.52.47h0a.49.49,0,0,1-.47.52l-1.44,1.08-1.56-.91a.5.5,0,0,1-.52-.48h0A.49.49,0,0,1,101.58,463.14Z"/>
    <rect x="100.11" y="463.11" width="4" height="1" rx="0.5" ry="0.5" transform="translate(481.43 749.04) rotate(139.38)"/>
    <rect x="99.16" y="463.16" width="4" height="3" rx="1.5" ry="1.5" transform="matrix(-1, 0.05, -0.05, -1, 227.36, 923.16)"/>
    <path class="cls-2" d="M98.48,449.09c7.86,10-6.83,21.51-18.11,25.36S54.28,471,51.3,459.07s6.08-16,16.16-17.24S90.63,439.1,98.48,449.09Z"/>
    <rect x="95.17" y="466.47" width="2" height="10" rx="1" ry="1" transform="matrix(0.17, -0.98, 0.98, 0.17, -384.83, 484.31)"/>
    <rect x="88.94" y="466.54" width="2" height="5.87" rx="1" ry="1" transform="translate(-332.46 245.7) rotate(-51.24)"/>
    <rect x="99.15" y="471.2" width="4" height="3" rx="1.5" ry="1.5" transform="translate(-15.19 941.89) rotate(-154)"/>
    <path d="M102.72,472.91l.91,1.55,1.79-.24a.51.51,0,0,1,.23.67h0a.5.5,0,0,1-.67.23l-1.79.24-.91-1.55a.52.52,0,0,1-.23-.67h0A.5.5,0,0,1,102.72,472.91Z"/>
    <path d="M102.26,471.57l.91,1.56,1.79-.25a.52.52,0,0,1,.23.67h0a.5.5,0,0,1-.67.23l-1.79.24-.91-1.55a.5.5,0,0,1-.23-.67h0A.5.5,0,0,1,102.26,471.57Z"/>
    <rect x="100.49" y="471.74" width="4" height="1" rx="0.5" ry="0.5" transform="translate(297.13 914.54) rotate(168.49)"/>
    <path class="cls-1" d="M66.8,451.51s13.26-4.19,17,16l13.76,24.17s-38.42-23.51-37.83-28C55.6,459.32,59.8,451.58,66.8,451.51Z"/>
    <ellipse class="cls-1" cx="47.77" cy="449.06" rx="10.5" ry="9.41" transform="translate(-248.93 108.61) rotate(-35)"/>
    <path class="cls-3" d="M30.6,450.17l7.09-2.6a.63.63,0,0,1,.84.57l.1,3.41a.63.63,0,0,1-.7.64l-7.19-.81A.63.63,0,0,1,30.6,450.17Z"/>
    <path class="cls-4" d="M38.1,451.84l2.06,1.65c-.77,0-1.58-.08-2.38-.17-3.9-.42-7-1.43-6.79-2.25h0Z"/>
    <ellipse class="cls-5" cx="42.34" cy="446.9" rx="2" ry="1.79" transform="translate(-248.67 105.11) rotate(-35)"/>
    <ellipse cx="42.34" cy="446.9" rx="1" ry="0.9" transform="translate(-248.67 105.11) rotate(-35)"/>
    <polygon class="cls-1" points="392.39 453.03 427 436.63 430.33 458.27 392.39 453.03"/>
    <rect x="397.8" y="457.71" width="2" height="10" rx="1" ry="1" transform="translate(-82.9 838.35) rotate(-87.19)"/>
    <path d="M405.43,462.45l1.55.91,1.44-1.08a.51.51,0,0,1,.53.47h0a.5.5,0,0,1-.47.53L407,464.36l-1.55-.92A.5.5,0,0,1,405,463h0A.5.5,0,0,1,405.43,462.45Z"/>
    <path d="M404.37,461.5l1.56.92,1.44-1.08a.51.51,0,0,1,.53.47h0a.51.51,0,0,1-.48.53L406,463.42l-1.55-.92a.51.51,0,0,1-.53-.47h0A.51.51,0,0,1,404.37,461.5Z"/>
    <rect x="402.9" y="461.47" width="4" height="1" rx="0.5" ry="0.5" transform="translate(1013 549.04) rotate(139.38)"/>
    <rect x="401.96" y="461.53" width="4" height="3" rx="1.5" ry="1.5" transform="translate(832.41 903.48) rotate(176.89)"/>
    <path class="cls-1" d="M374.66,467.93s12.13-6.82-.11-23.34L366.32,418s-9.11,44.11-5.45,46.73C361.31,470.75,369.83,473,374.66,467.93Z"/>
    <path class="cls-2" d="M401.28,447.46c7.85,10-6.83,21.5-18.12,25.35s-26.08-3.41-29.06-15.38,6.08-16,16.16-17.23S393.42,437.46,401.28,447.46Z"/>
    <rect x="397.97" y="464.83" width="2" height="10" rx="1" ry="1" transform="translate(-133 781.15) rotate(-80)"/>
    <rect x="391.73" y="464.9" width="2" height="5.87" rx="1" ry="1" transform="translate(-217.95 481.21) rotate(-51.24)"/>
    <rect x="401.95" y="469.56" width="4" height="3" rx="1.5" ry="1.5" transform="translate(560.46 1071.54) rotate(-154)"/>
    <path d="M405.52,471.27l.91,1.56,1.78-.25a.51.51,0,0,1,.23.67h0a.5.5,0,0,1-.67.23l-1.78.24-.91-1.55a.5.5,0,0,1-.23-.67h0A.5.5,0,0,1,405.52,471.27Z"/>
    <path d="M405.06,469.93l.9,1.56,1.79-.24a.5.5,0,0,1,.23.67h0a.51.51,0,0,1-.67.23l-1.78.24-.91-1.56a.5.5,0,0,1-.23-.67h0A.51.51,0,0,1,405.06,469.93Z"/>
    <rect x="403.29" y="470.1" width="4" height="1" rx="0.5" ry="0.5" transform="translate(896.31 850.89) rotate(168.49)"/>
    <path class="cls-1" d="M366.93,463.94s-11.29-8.12,2.71-23.17l11.15-25.48s4.12,44.85.19,47C379.88,468.24,371.17,469.51,366.93,463.94Z"/>
    <ellipse class="cls-1" cx="350.57" cy="447.42" rx="10.5" ry="9.41" transform="translate(-193.23 281.99) rotate(-35)"/>
    <path class="cls-3" d="M333.39,448.53l7.1-2.59a.62.62,0,0,1,.84.56l.09,3.41a.62.62,0,0,1-.69.64l-7.19-.81A.63.63,0,0,1,333.39,448.53Z"/>
    <path class="cls-4" d="M340.9,450.2l2.64.13c-.64.43-1.33.86-2,1.27-3.41,1.95-6.48,2.92-6.82,2.16h0Z"/>
    <ellipse class="cls-5" cx="345.14" cy="445.26" rx="2" ry="1.79" transform="translate(-192.97 278.49) rotate(-35)"/>
    <ellipse cx="345.14" cy="445.26" rx="1" ry="0.9" transform="translate(-192.97 278.49) rotate(-35)"/>
    <polygon class="cls-1" points="240.88 453.87 275.49 437.47 278.82 459.11 240.88 453.87"/>
    <rect x="246.29" y="458.55" width="2" height="10" rx="1" ry="1" transform="translate(-227.82 687.82) rotate(-87.19)"/>
    <path d="M253.91,463.28l1.56.92,1.44-1.08a.51.51,0,0,1,.53.47h0a.5.5,0,0,1-.48.53l-1.44,1.08-1.55-.92a.5.5,0,0,1-.53-.47h0A.52.52,0,0,1,253.91,463.28Z"/>
    <path d="M252.86,462.34l1.55.92,1.45-1.08a.49.49,0,0,1,.52.47h0a.5.5,0,0,1-.47.53l-1.44,1.08-1.55-.92a.5.5,0,0,1-.53-.47h0A.5.5,0,0,1,252.86,462.34Z"/>
    <rect x="251.39" y="462.31" width="4" height="1" rx="0.5" ry="0.5" transform="translate(747.03 649.15) rotate(139.38)"/>
    <rect x="250.44" y="462.36" width="4" height="3" rx="1.5" ry="1.5" transform="translate(529.66 913.37) rotate(176.89)"/>
    <path class="cls-1" d="M220.76,465.55s13,4.85,17.74-15.16l15-23.44s-39.56,21.53-39.2,26C210,457.17,213.77,465.12,220.76,465.55Z"/>
    <path class="cls-2" d="M249.77,448.3c7.85,10-6.83,21.5-18.12,25.35s-26.08-3.41-29.06-15.38,6.07-16,16.15-17.23S241.91,438.3,249.77,448.3Z"/>
    <rect x="246.46" y="465.67" width="2" height="10" rx="1" ry="1" transform="translate(-259.03 632.63) rotate(-80)"/>
    <rect x="240.22" y="465.74" width="2" height="5.87" rx="1" ry="1" transform="translate(-275.26 363.37) rotate(-51.24)"/>
    <rect x="250.44" y="470.4" width="4" height="3" rx="1.5" ry="1.5" transform="translate(272.41 1006.7) rotate(-154)"/>
    <path d="M254,472.11l.91,1.55,1.79-.24a.5.5,0,0,1,.23.67h0a.5.5,0,0,1-.67.23l-1.79.24-.9-1.55a.5.5,0,0,1-.24-.67h0A.51.51,0,0,1,254,472.11Z"/>
    <path d="M253.54,470.77l.91,1.56,1.79-.24a.49.49,0,0,1,.23.66h0a.5.5,0,0,1-.67.24l-1.79.24-.91-1.56a.51.51,0,0,1-.23-.67h0A.51.51,0,0,1,253.54,470.77Z"/>
    <rect x="251.77" y="470.94" width="4" height="1" rx="0.5" ry="0.5" transform="translate(596.49 882.78) rotate(168.49)"/>
    <path class="cls-1" d="M213,451.41s8.05-11.34,23.19,2.56l25.56,11s-44.82,4.43-47,.51C208.8,464.4,207.47,455.7,213,451.41Z"/>
    <ellipse class="cls-1" cx="199.05" cy="448.26" rx="10.5" ry="9.41" transform="translate(-221.11 195.24) rotate(-35)"/>
    <path class="cls-3" d="M181.88,449.37l7.1-2.6a.62.62,0,0,1,.83.57l.1,3.41a.63.63,0,0,1-.69.64l-7.19-.81A.63.63,0,0,1,181.88,449.37Z"/>
    <path class="cls-4" d="M189.39,451l2.06,1.66c-.78,0-1.58-.09-2.39-.18-3.9-.42-7-1.43-6.78-2.25h0Z"/>
    <ellipse class="cls-5" cx="193.63" cy="446.1" rx="2" ry="1.79" transform="translate(-220.85 191.74) rotate(-35)"/>
    <ellipse cx="193.63" cy="446.1" rx="1" ry="0.9" transform="translate(-220.85 191.74) rotate(-35)"/>
    <polygon class="cls-1" points="79.16 550.1 92.03 514.03 109.68 526.98 79.16 550.1"/>
    <path class="cls-1" d="M61.12,572.18s10.74,8.84,21.71-8.54l21.79-17.29s-44.41,7.47-45.53,11.83C53.65,560.75,54.66,569.5,61.12,572.18Z"/>
    <rect x="89.53" y="547.41" width="2" height="10" rx="1" ry="1" transform="translate(-257.95 990.48) rotate(-132.19)"/>
    <path d="M95,547.54l1.74-.45.26-1.78a.5.5,0,0,1,.71,0h0a.5.5,0,0,1,0,.7l-.26,1.79-1.75.45a.5.5,0,0,1-.7,0h0A.51.51,0,0,1,95,547.54Z"/>
    <path d="M93.62,547.62l1.74-.45.26-1.79a.51.51,0,0,1,.71,0h0a.5.5,0,0,1,0,.71l-.25,1.78-1.75.45a.5.5,0,0,1-.71,0h0A.49.49,0,0,1,93.62,547.62Z"/>
    <rect x="92.32" y="547.08" width="4" height="1" rx="0.5" ry="0.5" transform="translate(647.51 495.36) rotate(94.38)"/>
    <rect x="92.4" y="547.49" width="4" height="3" rx="1.5" ry="1.5" transform="translate(566.1 845.3) rotate(131.89)"/>
    <path class="cls-2" d="M81.5,539.87c12.62,1.52,10.37,20,5.11,30.74s-20.85,16-31.42,9.68-7-15.59-.76-23.61S68.87,538.36,81.5,539.87Z"/>
    <rect x="94.68" y="552.33" width="2" height="10" rx="1" ry="1" transform="translate(-305.97 955.38) rotate(-125)"/>
    <rect x="88.86" y="557.4" width="2" height="5.87" rx="1" ry="1" transform="translate(-457.37 710.58) rotate(-96.24)"/>
    <rect x="98.08" y="553.18" width="4" height="3" rx="1.5" ry="1.5" transform="translate(375.24 1046.58) rotate(161)"/>
    <path d="M101.33,553.72l1.74.45,1.1-1.43a.5.5,0,0,1,.63.31h0a.51.51,0,0,1-.31.64l-1.09,1.43-1.74-.46a.51.51,0,0,1-.64-.31h0A.5.5,0,0,1,101.33,553.72Z"/>
    <path d="M100.06,553.1l1.74.45,1.1-1.43a.5.5,0,0,1,.63.31h0a.51.51,0,0,1-.31.64l-1.09,1.43-1.74-.46a.51.51,0,0,1-.64-.31h0A.5.5,0,0,1,100.06,553.1Z"/>
    <rect x="98.7" y="552.91" width="4" height="1" rx="0.5" ry="0.5" transform="translate(617.78 774.82) rotate(123.49)"/>
    <path class="cls-1" d="M60.8,564s6.41-12.33,23.32-.64l26.82,7.36s-43.79,10.54-46.53,7C58.41,577.43,55.9,569,60.8,564Z"/>
    <ellipse class="cls-1" cx="45.61" cy="575.71" rx="10.5" ry="9.41" transform="translate(-529.27 520.66) rotate(-80)"/>
    <path class="cls-3" d="M34.25,588.64l3.19-6.86a.62.62,0,0,1,1-.19l2.48,2.34a.64.64,0,0,1,0,1l-5.66,4.51A.63.63,0,0,1,34.25,588.64Z"/>
    <path class="cls-4" d="M40.74,584.51l2.63-.29c-.56.53-1.18,1.06-1.81,1.57-3.05,2.46-5.94,3.91-6.39,3.2h0Z"/>
    <ellipse class="cls-5" cx="40.25" cy="578.02" rx="2" ry="1.79" transform="translate(-535.98 517.28) rotate(-80)"/>
    <ellipse cx="40.25" cy="578.02" rx="1" ry="0.9" transform="translate(-535.98 517.28) rotate(-80)"/>
    <polygon class="cls-1" points="395.23 542.96 408.1 506.89 425.76 519.84 395.23 542.96"/>
    <rect x="405.61" y="540.27" width="2" height="10" rx="1" ry="1" transform="translate(275.69 1212.74) rotate(-132.19)"/>
    <path d="M411.11,540.4l1.74-.45.26-1.78a.5.5,0,0,1,.71,0h0a.5.5,0,0,1,0,.7l-.26,1.79-1.75.45a.5.5,0,0,1-.7,0h0A.5.5,0,0,1,411.11,540.4Z"/>
    <path d="M409.7,540.48l1.74-.45.26-1.79a.5.5,0,0,1,.7,0h0a.5.5,0,0,1,0,.71l-.25,1.78-1.75.45a.5.5,0,0,1-.71,0h0A.49.49,0,0,1,409.7,540.48Z"/>
    <rect x="408.4" y="539.94" width="4" height="1" rx="0.5" ry="0.5" transform="translate(980.61 172.52) rotate(94.38)"/>
    <rect x="408.48" y="540.35" width="4" height="3" rx="1.5" ry="1.5" transform="matrix(-0.67, 0.74, -0.74, -0.67, 1087.92, 598.11)"/>
    <path class="cls-1" d="M393.23,566s3.75-13.39-16.58-16.42l-24.6-13s24.75,37.63,29.19,36.9C385.78,577.47,393.39,573,393.23,566Z"/>
    <path class="cls-2" d="M397.58,532.73c12.62,1.52,10.37,20,5.11,30.74s-20.85,16-31.42,9.68-7-15.59-.76-23.61S385,531.22,397.58,532.73Z"/>
    <rect x="410.76" y="545.19" width="2" height="10" rx="1" ry="1" transform="translate(197.25 1203.06) rotate(-125)"/>
    <rect x="404.94" y="550.26" width="2" height="5.87" rx="1" ry="1" transform="translate(-99.83 1016.87) rotate(-96.24)"/>
    <rect x="414.15" y="546.04" width="4" height="3" rx="1.5" ry="1.5" transform="translate(987.86 929.81) rotate(161)"/>
    <path d="M417.41,546.58l1.74.45,1.1-1.43a.5.5,0,0,1,.63.31h0a.51.51,0,0,1-.31.64L419.48,548l-1.74-.46a.51.51,0,0,1-.64-.31h0A.5.5,0,0,1,417.41,546.58Z"/>
    <path d="M416.14,546l1.74.45L419,545a.5.5,0,0,1,.63.31h0a.51.51,0,0,1-.31.64l-1.09,1.43-1.75-.46a.5.5,0,0,1-.63-.31h0A.5.5,0,0,1,416.14,546Z"/>
    <rect x="414.77" y="545.77" width="4" height="1" rx="0.5" ry="0.5" transform="matrix(-0.55, 0.83, -0.83, -0.55, 1102.32, 500.14)"/>
    <path class="cls-1" d="M384.94,568.68s-13.73,2.24-14.46-18.31l-10.14-25.9s34.63,28.8,33.41,33.13C397.15,562.56,391.88,569.62,384.94,568.68Z"/>
    <ellipse class="cls-1" cx="361.69" cy="568.57" rx="10.5" ry="9.41" transform="translate(-261.04 826.03) rotate(-80)"/>
    <path class="cls-3" d="M350.33,581.5l3.18-6.86a.63.63,0,0,1,1-.19l2.48,2.34a.64.64,0,0,1,0,1l-5.66,4.51A.63.63,0,0,1,350.33,581.5Z"/>
    <path class="cls-4" d="M356.82,577.37l2-1.78c-.15.76-.33,1.55-.54,2.34-1,3.78-2.51,6.65-3.29,6.34h0Z"/>
    <ellipse class="cls-5" cx="356.32" cy="570.88" rx="2" ry="1.79" transform="translate(-267.75 822.66) rotate(-80)"/>
    <ellipse cx="356.32" cy="570.88" rx="1" ry="0.9" transform="translate(-267.75 822.66) rotate(-80)"/>
    <polygon class="cls-1" points="239.9 545.38 252.77 509.31 270.42 522.26 239.9 545.38"/>
    <rect x="250.27" y="542.69" width="2" height="10" rx="1" ry="1" transform="translate(14.23 1101.69) rotate(-132.19)"/>
    <path d="M255.77,542.82l1.74-.45.26-1.78a.51.51,0,0,1,.71,0h0a.51.51,0,0,1,0,.71l-.26,1.78-1.75.45a.49.49,0,0,1-.7,0h0A.5.5,0,0,1,255.77,542.82Z"/>
    <path d="M254.36,542.9l1.74-.45.26-1.78a.5.5,0,0,1,.71,0h0a.49.49,0,0,1,0,.7l-.25,1.79-1.75.45a.5.5,0,0,1-.7,0h0A.5.5,0,0,1,254.36,542.9Z"/>
    <rect x="253.06" y="542.36" width="4" height="1" rx="0.5" ry="0.5" transform="translate(815.82 330.01) rotate(94.38)"/>
    <rect x="253.14" y="542.77" width="4" height="3" rx="1.5" ry="1.5" transform="translate(830.66 717.79) rotate(131.89)"/>
    <path class="cls-1" d="M233.92,567.87s12.65-5.78,1.83-23.26l-6-27.16s-12.75,43.2-9.32,46.11C220.38,569.57,228.68,572.51,233.92,567.87Z"/>
    <path class="cls-2" d="M242.24,535.16c12.62,1.51,10.37,20,5.11,30.73s-20.85,16-31.42,9.68-7-15.58-.76-23.61S229.61,533.64,242.24,535.16Z"/>
    <rect x="255.42" y="547.61" width="2" height="10" rx="1" ry="1" transform="translate(-49.17 1079.63) rotate(-125)"/>
    <rect x="249.6" y="552.68" width="2" height="5.87" rx="1" ry="1" transform="translate(-274.47 865.14) rotate(-96.24)"/>
    <rect x="258.82" y="548.46" width="4" height="3" rx="1.5" ry="1.5" transform="translate(686.43 985.08) rotate(161)"/>
    <path d="M262.07,549l1.74.46,1.1-1.44a.5.5,0,0,1,.63.31h0a.51.51,0,0,1-.31.64l-1.09,1.43L262.4,550a.51.51,0,0,1-.64-.31h0A.51.51,0,0,1,262.07,549Z"/>
    <path d="M260.8,548.38l1.74.46,1.1-1.44a.5.5,0,0,1,.63.31h0a.51.51,0,0,1-.31.64l-1.09,1.43-1.74-.45a.51.51,0,0,1-.64-.31h0A.51.51,0,0,1,260.8,548.38Z"/>
    <rect x="259.44" y="548.19" width="4" height="1" rx="0.5" ry="0.5" transform="translate(863.29 633.45) rotate(123.49)"/>
    <path class="cls-1" d="M218.45,563.35s-2.33-13.71,18.21-14.59l25.83-10.31s-28.56,34.83-32.9,33.63C224.66,575.52,217.56,570.3,218.45,563.35Z"/>
    <ellipse class="cls-1" cx="206.35" cy="570.99" rx="10.5" ry="9.41" transform="translate(-391.8 675.06) rotate(-80)"/>
    <path class="cls-3" d="M195,583.92l3.18-6.85a.62.62,0,0,1,1-.19l2.48,2.34a.63.63,0,0,1,0,.94L196,584.67A.62.62,0,0,1,195,583.92Z"/>
    <path class="cls-4" d="M201.48,579.79l2.63-.28c-.56.53-1.18,1.06-1.81,1.56-3.05,2.47-5.94,3.91-6.39,3.21h0Z"/>
    <ellipse class="cls-5" cx="200.99" cy="573.3" rx="2" ry="1.79" transform="translate(-398.51 671.68) rotate(-80)"/>
    <ellipse cx="200.99" cy="573.3" rx="1" ry="0.9" transform="translate(-398.51 671.68) rotate(-80)"/>
    <polygon class="cls-6" points="90.71 654.17 124.59 672.02 109.27 687.67 90.71 654.17"/>
    <rect x="69.98" y="665.83" width="2" height="10" rx="1" ry="1" transform="translate(592.38 242.83) rotate(56.66)"/>
    <path d="M65.79,675l-1.8.18-.53,1.72a.49.49,0,0,1-.7-.07h0a.5.5,0,0,1,.07-.7l.53-1.73,1.79-.17a.52.52,0,0,1,.71.07h0A.5.5,0,0,1,65.79,675Z"/>
    <path d="M67.19,675.1l-1.79.17L64.87,677a.49.49,0,0,1-.7-.07h0a.49.49,0,0,1,.07-.7l.53-1.72,1.79-.18a.5.5,0,0,1,.7.07h0A.5.5,0,0,1,67.19,675.1Z"/>
    <rect x="64.49" y="674.52" width="4" height="1" rx="0.5" ry="0.5" transform="translate(-605.84 585.27) rotate(-76.77)"/>
    <rect x="64.63" y="672.12" width="4" height="3" rx="1.5" ry="1.5" transform="translate(-411.24 194.2) rotate(-39.26)"/>
    <path class="cls-6" d="M78.29,648.21s0,13.91-20.38,11.35l-27.19,5.86s34-29.58,38.05-27.67C74.2,635.18,80.33,641.51,78.29,648.21Z"/>
    <path class="cls-1" d="M98.73,658c.7,12.69-17.93,13.7-29.38,10.38s-19.41-17.76-15-29.27,14.13-9.59,23.12-4.85S98,645.3,98.73,658Z"/>
    <rect x="75.63" y="669.57" width="2" height="10" rx="1" ry="1" transform="translate(477.85 126.91) rotate(42.71)"/>
    <rect x="77.67" y="666.46" width="2" height="5.87" rx="1" ry="1" transform="translate(-324.16 129.02) rotate(-30)"/>
    <rect x="70.9" y="676.59" width="4" height="3" rx="1.5" ry="1.5" transform="translate(-341.55 136.47) rotate(-31.29)"/>
    <path d="M71.88,679.3l-1.81-.08-.76,1.63a.49.49,0,0,1-.68-.16h0a.5.5,0,0,1,.16-.69l.77-1.63,1.8.07a.5.5,0,0,1,.68.17h0A.5.5,0,0,1,71.88,679.3Z"/>
    <path d="M73.25,679.63l-1.8-.07-.76,1.63A.5.5,0,0,1,70,681h0a.49.49,0,0,1,.17-.68l.76-1.64,1.8.08a.5.5,0,0,1,.69.17h0A.5.5,0,0,1,73.25,679.63Z"/>
    <rect x="70.56" y="678.96" width="4" height="1" rx="0.5" ry="0.5" transform="translate(-587.16 501.4) rotate(-68.8)"/>
    <path class="cls-6" d="M76,647.3s3.9,13.35-16.4,16.59L35.1,677.12s24.34-37.89,28.79-37.21C68.39,635.93,76,640.3,76,647.3Z"/>
    <ellipse class="cls-6" cx="57.35" cy="627.47" rx="10.5" ry="9.41" transform="translate(-563.99 522.84) rotate(-75.22)"/>
    <path class="cls-3" d="M45,639.41l3.74-6.57a.62.62,0,0,1,1-.1L52,635.28a.62.62,0,0,1-.12.93l-6,4A.63.63,0,0,1,45,639.41Z"/>
    <path class="cls-4" d="M51.76,635.83l2.64-.06c-.61.48-1.26,1-1.93,1.41-3.25,2.2-6.25,3.4-6.64,2.66h0Z"/>
    <ellipse class="cls-5" cx="51.8" cy="629.32" rx="2" ry="1.79" transform="translate(-569.91 518.86) rotate(-75.22)"/>
    <ellipse cx="51.8" cy="629.32" rx="1" ry="0.9" transform="matrix(0.26, -0.97, 0.97, 0.26, -569.91, 518.86)"/>
    <polygon class="cls-6" points="390.71 654.17 424.59 672.02 409.27 687.67 390.71 654.17"/>
    <path class="cls-6" d="M362.52,655.47s-10-9.65,6-22.54l14.67-23.63s-2.32,45-6.52,46.59C374.73,661.58,365.93,661.59,362.52,655.47Z"/>
    <rect x="369.98" y="665.83" width="2" height="10" rx="1" ry="1" transform="translate(727.5 -7.8) rotate(56.66)"/>
    <path d="M365.79,675l-1.8.18-.53,1.72a.49.49,0,0,1-.7-.07h0a.5.5,0,0,1,.07-.7l.53-1.73,1.79-.17a.52.52,0,0,1,.71.07h0A.5.5,0,0,1,365.79,675Z"/>
    <path d="M367.19,675.1l-1.79.17-.53,1.72a.49.49,0,0,1-.7-.07h0a.49.49,0,0,1,.07-.7l.53-1.72,1.79-.18a.5.5,0,0,1,.7.07h0A.5.5,0,0,1,367.19,675.1Z"/>
    <rect x="364.49" y="674.52" width="4" height="1" rx="0.5" ry="0.5" transform="translate(-374.49 877.31) rotate(-76.77)"/>
    <rect x="364.63" y="672.12" width="4" height="3" rx="1.5" ry="1.5" transform="translate(-343.53 384.04) rotate(-39.26)"/>
    <path class="cls-1" d="M398.73,658c.7,12.69-17.93,13.7-29.38,10.38s-19.41-17.76-15-29.27,14.13-9.59,23.12-4.85S398,645.3,398.73,658Z"/>
    <rect x="375.63" y="669.57" width="2" height="10" rx="1" ry="1" transform="translate(557.4 -76.57) rotate(42.71)"/>
    <rect x="377.67" y="666.46" width="2" height="5.87" rx="1" ry="1" transform="translate(-283.96 279.02) rotate(-30)"/>
    <rect x="370.9" y="676.59" width="4" height="3" rx="1.5" ry="1.5" transform="translate(-297.92 292.27) rotate(-31.29)"/>
    <path d="M371.88,679.3l-1.81-.08-.76,1.63a.49.49,0,0,1-.68-.16h0a.5.5,0,0,1,.16-.69l.77-1.63,1.8.07a.5.5,0,0,1,.68.17h0A.5.5,0,0,1,371.88,679.3Z"/>
    <path d="M373.25,679.63l-1.8-.07-.76,1.63A.5.5,0,0,1,370,681h0a.49.49,0,0,1,.17-.68l.76-1.64,1.8.08a.5.5,0,0,1,.69.17h0A.5.5,0,0,1,373.25,679.63Z"/>
    <rect x="370.56" y="678.96" width="4" height="1" rx="0.5" ry="0.5" transform="translate(-395.65 781.1) rotate(-68.8)"/>
    <path class="cls-6" d="M359.77,649s-3.34-13.5,17.07-15.9l25-12.2s-25.89,36.85-30.31,36C366.86,660.67,359.4,656,359.77,649Z"/>
    <ellipse class="cls-6" cx="357.35" cy="627.47" rx="10.5" ry="9.41" transform="translate(-340.53 812.91) rotate(-75.22)"/>
    <path class="cls-3" d="M345,639.41l3.74-6.57a.62.62,0,0,1,1-.1l2.27,2.54a.62.62,0,0,1-.12.93l-6,4A.63.63,0,0,1,345,639.41Z"/>
    <path class="cls-4" d="M351.76,635.83l2.64-.06c-.61.48-1.26,1-1.93,1.41-3.25,2.2-6.25,3.4-6.64,2.66h0Z"/>
    <ellipse class="cls-5" cx="351.8" cy="629.32" rx="2" ry="1.79" transform="translate(-346.45 808.93) rotate(-75.22)"/>
    <ellipse cx="351.8" cy="629.32" rx="1" ry="0.9" transform="matrix(0.26, -0.97, 0.97, 0.26, -346.45, 808.93)"/>
    <polygon class="cls-6" points="240.71 654.17 274.59 672.02 259.27 687.67 240.71 654.17"/>
    <path class="cls-6" d="M223.65,635s13.45,3.53,5.78,22.6l-1.26,27.79S208.22,645,211.1,641.58C210,635.67,217.69,631.36,223.65,635Z"/>
    <rect x="219.98" y="665.83" width="2" height="10" rx="1" ry="1" transform="translate(659.94 117.52) rotate(56.66)"/>
    <path d="M215.79,675l-1.8.18-.53,1.72a.49.49,0,0,1-.7-.07h0a.5.5,0,0,1,.07-.7l.53-1.73,1.79-.17a.52.52,0,0,1,.71.07h0A.5.5,0,0,1,215.79,675Z"/>
    <path d="M217.19,675.1l-1.79.17-.53,1.72a.49.49,0,0,1-.7-.07h0a.49.49,0,0,1,.07-.7l.53-1.72,1.79-.18a.5.5,0,0,1,.7.07h0A.5.5,0,0,1,217.19,675.1Z"/>
    <rect x="214.49" y="674.52" width="4" height="1" rx="0.5" ry="0.5" transform="translate(-490.16 731.29) rotate(-76.77)"/>
    <rect x="214.63" y="672.12" width="4" height="3" rx="1.5" ry="1.5" transform="translate(-377.38 289.12) rotate(-39.26)"/>
    <path class="cls-1" d="M248.73,658c.7,12.69-17.93,13.7-29.38,10.38s-19.41-17.76-15-29.27,14.13-9.59,23.12-4.85S248,645.3,248.73,658Z"/>
    <rect x="225.63" y="669.57" width="2" height="10" rx="1" ry="1" transform="translate(517.62 25.17) rotate(42.71)"/>
    <rect x="227.67" y="666.46" width="2" height="5.87" rx="1" ry="1" transform="translate(-304.06 204.02) rotate(-30)"/>
    <rect x="220.9" y="676.59" width="4" height="3" rx="1.5" ry="1.5" transform="translate(-319.74 214.37) rotate(-31.29)"/>
    <path d="M221.88,679.3l-1.81-.08-.76,1.63a.49.49,0,0,1-.68-.16h0a.5.5,0,0,1,.16-.69l.77-1.63,1.8.07a.5.5,0,0,1,.68.17h0A.5.5,0,0,1,221.88,679.3Z"/>
    <path d="M223.25,679.63l-1.8-.07-.76,1.63A.5.5,0,0,1,220,681h0a.49.49,0,0,1,.17-.68l.76-1.64,1.8.08a.5.5,0,0,1,.69.17h0A.5.5,0,0,1,223.25,679.63Z"/>
    <rect x="220.56" y="678.96" width="4" height="1" rx="0.5" ry="0.5" transform="translate(-491.4 641.25) rotate(-68.8)"/>
    <path class="cls-6" d="M219.46,637.67s13.84-1.39,13.31,19.16l8.52,26.48S208.5,652.43,210,648.18C206.9,643,212.59,636.31,219.46,637.67Z"/>
    <ellipse class="cls-6" cx="207.35" cy="627.47" rx="10.5" ry="9.41" transform="translate(-452.26 667.87) rotate(-75.22)"/>
    <path class="cls-3" d="M195,639.41l3.74-6.57a.62.62,0,0,1,1-.1l2.27,2.54a.62.62,0,0,1-.12.93l-6,4A.63.63,0,0,1,195,639.41Z"/>
    <path class="cls-4" d="M201.76,635.83l2.64-.06c-.61.48-1.26,1-1.93,1.41-3.25,2.2-6.25,3.4-6.64,2.66h0Z"/>
    <ellipse class="cls-5" cx="201.8" cy="629.32" rx="2" ry="1.79" transform="translate(-458.18 663.89) rotate(-75.22)"/>
    <ellipse cx="201.8" cy="629.32" rx="1" ry="0.9" transform="matrix(0.26, -0.97, 0.97, 0.26, -458.18, 663.89)"/>
    <polygon class="cls-1" points="540.88 453.87 575.49 437.47 578.82 459.11 540.88 453.87"/>
    <rect x="546.29" y="458.55" width="2" height="10" rx="1" ry="1" transform="translate(57.47 987.46) rotate(-87.19)"/>
    <path d="M553.91,463.28l1.56.92,1.44-1.08a.51.51,0,0,1,.53.47h0a.5.5,0,0,1-.48.53l-1.44,1.08-1.55-.92a.5.5,0,0,1-.53-.47h0A.52.52,0,0,1,553.91,463.28Z"/>
    <path d="M552.86,462.34l1.55.92,1.45-1.08a.49.49,0,0,1,.52.47h0a.5.5,0,0,1-.47.53l-1.44,1.08-1.55-.92a.5.5,0,0,1-.53-.47h0A.5.5,0,0,1,552.86,462.34Z"/>
    <rect x="551.39" y="462.31" width="4" height="1" rx="0.5" ry="0.5" transform="translate(1274.74 453.84) rotate(139.38)"/>
    <rect x="550.44" y="462.36" width="4" height="3" rx="1.5" ry="1.5" transform="translate(1129.22 897.11) rotate(176.89)"/>
    <path class="cls-1" d="M520.76,465.55s13,4.85,17.74-15.16l15-23.44s-39.56,21.53-39.2,26C510,457.17,513.77,465.12,520.76,465.55Z"/>
    <path class="cls-2" d="M549.77,448.3c7.85,10-6.83,21.5-18.12,25.35s-26.08-3.41-29.06-15.38,6.07-16,16.15-17.23S541.91,438.3,549.77,448.3Z"/>
    <rect x="546.46" y="465.67" width="2" height="10" rx="1" ry="1" transform="translate(-11.13 928.08) rotate(-80)"/>
    <rect x="540.22" y="465.74" width="2" height="5.87" rx="1" ry="1" transform="matrix(0.63, -0.78, 0.78, 0.63, -163.07, 597.31)"/>
    <rect x="550.44" y="470.4" width="4" height="3" rx="1.5" ry="1.5" transform="translate(842.04 1138.24) rotate(-154)"/>
    <path d="M554,472.11l.91,1.55,1.79-.24a.5.5,0,0,1,.23.67h0a.5.5,0,0,1-.67.23l-1.79.24-.9-1.55a.5.5,0,0,1-.24-.67h0A.51.51,0,0,1,554,472.11Z"/>
    <path d="M553.54,470.77l.91,1.56,1.79-.24a.49.49,0,0,1,.23.66h0a.5.5,0,0,1-.67.24l-1.79.24-.91-1.56a.51.51,0,0,1-.23-.67h0A.51.51,0,0,1,553.54,470.77Z"/>
    <rect x="551.77" y="470.94" width="4" height="1" rx="0.5" ry="0.5" transform="translate(1190.46 822.93) rotate(168.49)"/>
    <path class="cls-1" d="M513,451.41s8-11.34,23.19,2.56l25.56,11s-44.82,4.43-47,.51C508.8,464.4,507.47,455.7,513,451.41Z"/>
    <ellipse class="cls-1" cx="499.05" cy="448.26" rx="10.5" ry="9.41" transform="translate(-166.86 367.31) rotate(-35)"/>
    <path class="cls-3" d="M481.88,449.37l7.1-2.6a.62.62,0,0,1,.83.57l.1,3.41a.63.63,0,0,1-.69.64l-7.19-.81A.63.63,0,0,1,481.88,449.37Z"/>
    <path class="cls-4" d="M489.39,451l2.06,1.66c-.78,0-1.58-.09-2.39-.18-3.9-.42-7-1.43-6.78-2.25h0Z"/>
    <ellipse class="cls-5" cx="493.63" cy="446.1" rx="2" ry="1.79" transform="translate(-166.6 363.81) rotate(-35)"/>
    <ellipse cx="493.63" cy="446.1" rx="1" ry="0.9" transform="translate(-166.6 363.81) rotate(-35)"/>
  </g>
</svg>
