<svg id="Layer_4" data-name="Layer 4" xmlns="http://www.w3.org/2000/svg" xmlns:xlink="http://www.w3.org/1999/xlink" viewBox="0 0 1920 1080">
  <defs>
    <style>
      .cls-1, .cls-10, .cls-13, .cls-7 {
        fill: none;
      }

      .cls-2 {
        clip-path: url(#clip-path);
      }

      .cls-3 {
        fill: #6cbd58;
      }

      .cls-4 {
        fill: #e86a43;
      }

      .cls-10, .cls-4 {
        stroke: #743522;
        stroke-width: 4px;
      }

      .cls-10, .cls-13, .cls-4, .cls-7 {
        stroke-miterlimit: 10;
      }

      .cls-5 {
        fill: #41553d;
      }

      .cls-6 {
        fill: #47ad2e;
      }

      .cls-7 {
        stroke: #41553d;
        stroke-width: 8px;
      }

      .cls-8 {
        fill: #787369;
      }

      .cls-9 {
        fill: #a09a8c;
      }

      .cls-11 {
        fill: #875a39;
      }

      .cls-12 {
        fill: #22170e;
      }

      .cls-13 {
        stroke: #442d1d;
        stroke-width: 3px;
      }
    </style>
    <clipPath id="clip-path">
      <rect class="cls-1" width="1919" height="1080"/>
    </clipPath>
  </defs>
  <title>mellemgrund-01</title>
  <g class="cls-2">
    <g id="Mellemgrund">
      <rect class="cls-3" x="-3" y="324" width="1923" height="756"/>
      <path class="cls-4" d="M1014,252s171-40,828-17l3.18,129.76S1332,344,1031,371Z"/>
      <g>
        <circle class="cls-5" cx="657.18" cy="241.81" r="40.98"/>
        <circle class="cls-5" cx="562.65" cy="323.77" r="40.98"/>
        <circle class="cls-5" cx="829.07" cy="258.94" r="24.32"/>
        <circle class="cls-6" cx="644.14" cy="339.21" r="104.15"/>
        <circle class="cls-6" cx="774.57" cy="297.01" r="74.01"/>
        <circle class="cls-6" cx="718.14" cy="392" r="74.01"/>
        <circle class="cls-5" cx="940.19" cy="323.77" r="40.98"/>
        <circle class="cls-6" cx="865.49" cy="356.56" r="104.15"/>
        <circle class="cls-6" cx="939.99" cy="392" r="74.01"/>
        <circle class="cls-6" cx="562.93" cy="392" r="74.01"/>
        <circle class="cls-6" cx="865.97" cy="282.79" r="40.98"/>
        <circle class="cls-6" cx="700.56" cy="304.97" r="104.15"/>
        <circle class="cls-6" cx="761.56" cy="234.84" r="24.32"/>
        <circle class="cls-6" cx="785.96" cy="425.04" r="40.98"/>
        <circle class="cls-6" cx="668.51" cy="440.72" r="24.32"/>
        <circle class="cls-6" cx="825.21" cy="440.72" r="24.32"/>
        <circle class="cls-6" cx="627.26" cy="419.74" r="40.98"/>
        <path class="cls-7" d="M533.62,350.37a46.26,46.26,0,0,1,58.16-30"/>
        <path class="cls-7" d="M620.62,418.59a19.11,19.11,0,0,1,27,.54"/>
        <path class="cls-7" d="M821.68,341.45a19.12,19.12,0,0,1,27,.53"/>
        <path class="cls-7" d="M647.62,246.94a19.11,19.11,0,0,1,27,.54"/>
        <path class="cls-7" d="M685.5,394.73a46.26,46.26,0,0,1,58.16-30.05"/>
        <path class="cls-7" d="M725.29,260a46.25,46.25,0,0,1,46.08,46.49"/>
        <path class="cls-7" d="M903.69,368.51A46.27,46.27,0,0,1,949.77,415"/>
      </g>
      <circle class="cls-6" cx="273.28" cy="381.1" r="27.24"/>
      <path class="cls-7" d="M145.67,394.66a21.4,21.4,0,0,1,30.27.6"/>
      <circle class="cls-5" cx="144.69" cy="227.6" r="50.34"/>
      <circle class="cls-5" cx="28.57" cy="328.28" r="50.34"/>
      <circle class="cls-5" cx="355.83" cy="248.65" r="29.88"/>
      <circle class="cls-6" cx="128.68" cy="347.25" r="127.93"/>
      <circle class="cls-6" cx="288.9" cy="295.41" r="90.91"/>
      <circle class="cls-6" cx="219.57" cy="412.09" r="90.91"/>
      <circle class="cls-5" cx="492.33" cy="328.28" r="50.34"/>
      <circle class="cls-6" cx="400.57" cy="368.56" r="127.93"/>
      <circle class="cls-6" cx="492.08" cy="412.09" r="90.91"/>
      <circle class="cls-6" cx="28.92" cy="412.09" r="90.91"/>
      <circle class="cls-6" cx="401.17" cy="277.94" r="50.34"/>
      <circle class="cls-6" cx="197.98" cy="305.2" r="127.93"/>
      <circle class="cls-6" cx="302.88" cy="452.68" r="50.34"/>
      <circle class="cls-6" cx="158.61" cy="471.94" r="29.88"/>
      <circle class="cls-6" cx="351.1" cy="471.94" r="29.88"/>
      <circle class="cls-6" cx="107.94" cy="446.17" r="50.34"/>
      <path class="cls-7" d="M-7.08,361a56.83,56.83,0,0,1,71.44-36.91"/>
      <path class="cls-7" d="M99.79,444.76a23.47,23.47,0,0,1,33.2.66"/>
      <path class="cls-7" d="M346.76,350a23.47,23.47,0,0,1,33.21.66"/>
      <path class="cls-7" d="M179.48,415.44a56.83,56.83,0,0,1,71.44-36.9"/>
      <path class="cls-7" d="M228.36,250A56.83,56.83,0,0,1,285,307.1"/>
      <path class="cls-7" d="M572.56,397.17A56.82,56.82,0,0,1,559,476.43"/>
      <path class="cls-8" d="M1085.15,907.21c3.65,27-59.38,76-141.76,69-86.06-7.38-151.34-1.82-155-28.84s59.08-70.32,141.76-69C1018.76,879.82,1081.49,880.2,1085.15,907.21Z"/>
      <path class="cls-9" d="M1084.15,901.21c3.65,27-59.38,76-141.76,69-86.06-7.38-151.34-1.82-155-28.84s59.08-70.32,141.76-69C1017.76,873.82,1080.49,874.2,1084.15,901.21Z"/>
      <path class="cls-8" d="M1200.2,814.64c3,22-48.31,61.88-115.35,56.13-70-6-123.14-1.49-126.11-23.47s48.07-57.22,115.34-56.13C1146.18,792.35,1197.22,792.66,1200.2,814.64Z"/>
      <path class="cls-9" d="M1199.2,808.64c3,22-48.31,61.88-115.35,56.13-70-6-123.14-1.49-126.11-23.47s48.07-57.22,115.34-56.13C1145.18,786.35,1196.22,786.66,1199.2,808.64Z"/>
      <path class="cls-8" d="M1342.15,733.09c2.7,20-43.89,56.21-104.78,51-63.6-5.46-111.85-1.35-114.55-21.31s43.66-52,104.77-51C1293.08,712.84,1339.44,713.12,1342.15,733.09Z"/>
      <path class="cls-9" d="M1342.15,727.09c2.7,20-43.89,56.21-104.78,51-63.6-5.46-111.85-1.35-114.55-21.31s43.66-52,104.77-51C1293.08,706.84,1339.44,707.12,1342.15,727.09Z"/>
      <path class="cls-8" d="M1432.83,641.12c2.57,19-41.76,53.46-99.68,48.46-60.51-5.21-106.41-1.32-109-20.31s41.55-49.43,99.69-48.46C1386.17,621.84,1430.27,622.13,1432.83,641.12Z"/>
      <path class="cls-9" d="M1430.83,638.12c2.57,19-41.76,53.46-99.68,48.46-60.51-5.21-106.41-1.32-109-20.31s41.55-49.43,99.69-48.46C1384.17,618.84,1428.27,619.13,1430.83,638.12Z"/>
      <path class="cls-8" d="M1532.71,561.56c2.48,18.58-40.89,52.24-97.53,47.31-59.17-5.16-104.06-1.39-106.55-20s40.68-48.3,97.53-47.3C1487.09,542.67,1530.22,543,1532.71,561.56Z"/>
      <path class="cls-9" d="M1532.71,556.56c2.48,18.58-40.89,52.24-97.53,47.31-59.17-5.16-104.06-1.39-106.55-20s40.68-48.3,97.53-47.3C1487.09,537.67,1530.22,538,1532.71,556.56Z"/>
      <path class="cls-7" d="M434.36,255A56.82,56.82,0,0,1,491,312.1"/>
      <path class="cls-7" d="M514.36,327A56.82,56.82,0,0,1,571,384.1"/>
      <path class="cls-7" d="M340.4,489.75A56.83,56.83,0,0,1,260,488.24"/>
      <path class="cls-7" d="M80,488c-26.16,25.19-66.86,25.3-91,.24"/>
      <line class="cls-10" x1="1088" y1="368" x2="1083" y2="301"/>
      <line class="cls-10" x1="1137" y1="237" x2="1137" y2="297"/>
      <line class="cls-10" x1="1156" y1="239" x2="1156" y2="363"/>
      <line class="cls-10" x1="1056.59" y1="243.05" x2="1061.41" y2="366.95"/>
      <line class="cls-10" x1="1184" y1="234" x2="1184" y2="294"/>
      <line class="cls-10" x1="1289" y1="291" x2="1289" y2="351"/>
      <line class="cls-10" x1="1241" y1="231" x2="1241" y2="291"/>
      <line class="cls-10" x1="1216" y1="354" x2="1211" y2="287"/>
      <line class="cls-10" x1="1116" y1="241" x2="1116" y2="365"/>
      <line class="cls-10" x1="1264" y1="235" x2="1264" y2="325"/>
      <line class="cls-10" x1="1315" y1="229" x2="1315" y2="353"/>
      <line class="cls-10" x1="1345" y1="229" x2="1345" y2="353"/>
      <line class="cls-10" x1="1368" y1="282" x2="1368" y2="342"/>
      <line class="cls-10" x1="1420" y1="231" x2="1420" y2="291"/>
      <line class="cls-10" x1="1394" y1="233" x2="1394" y2="357"/>
      <line class="cls-10" x1="1447" y1="347" x2="1442" y2="280"/>
      <line class="cls-10" x1="1457" y1="233" x2="1457" y2="293"/>
      <line class="cls-10" x1="1475" y1="298" x2="1475" y2="358"/>
      <line class="cls-10" x1="1489" y1="231" x2="1489" y2="291"/>
      <line class="cls-10" x1="1504" y1="263" x2="1504" y2="361"/>
      <line class="cls-10" x1="1523" y1="229" x2="1523" y2="353"/>
      <line class="cls-10" x1="1550" y1="295" x2="1545" y2="228"/>
      <line class="cls-10" x1="1567" y1="360" x2="1562" y2="293"/>
      <line class="cls-10" x1="1585.38" y1="229.05" x2="1580.62" y2="352.95"/>
      <line class="cls-10" x1="1599" y1="232" x2="1599" y2="322"/>
      <line class="cls-10" x1="1620" y1="258" x2="1620" y2="356"/>
      <g>
        <g>
          <path class="cls-11" d="M1014.5,40.5s122,22,148,14,188-42,209-36,97-1,97-1-84,22-96,19-40-3-58,0c0,0,126,11,162,0s88-19,88-19l-91,32s-151-3-170,7-158,47-158,47-100-1-118,11S1014.5,40.5,1014.5,40.5Z"/>
          <g>
            <polygon class="cls-11" points="815 516 821.27 511.11 888 459 1056 458 1145 511 1056 496 1145 546 1020 524 1044 568 973 513 888 562 933 500 804 562 888 483 815 516"/>
            <path class="cls-11" d="M1056,458s-29-187-21-230S1027-5,1056-9,878-9,878-9s30,249,9,262c0,0,34,197,1,206S1056,458,1056,458Z"/>
            <path class="cls-12" d="M993,82c10.06,25.72-17.61,61.36-28.5,50C953,120,924.05,106.89,936,82s14-42,28.5-50C978.28,24.4,984,59,993,82Z"/>
          </g>
        </g>
        <path class="cls-13" d="M921.5,166.5s20,74,12,92,10,92,16,111"/>
        <path class="cls-13" d="M1014.5,134.5s0,58-19,94,15,81,19,113-19,107-19,107"/>
      </g>
    </g>
  </g>
</svg>
