<svg id="Layer_1" data-name="Layer 1" xmlns="http://www.w3.org/2000/svg" viewBox="0 0 150 216">
  <defs>
    <style>
      .cls-1 {
        fill: #fcd7a5;
      }

      .cls-13, .cls-14, .cls-2 {
        fill: none;
      }

      .cls-2 {
        stroke: #5b2e0e;
      }

      .cls-10, .cls-13, .cls-14, .cls-15, .cls-2, .cls-9 {
        stroke-miterlimit: 10;
      }

      .cls-14, .cls-2 {
        stroke-width: 3px;
      }

      .cls-3 {
        fill: #cc7a27;
      }

      .cls-4 {
        fill: #ad6423;
      }

      .cls-5 {
        fill: #434347;
      }

      .cls-6 {
        fill: #fff;
      }

      .cls-7, .cls-9 {
        fill: #7c1c0d;
      }

      .cls-8 {
        fill: #0ea1ca;
      }

      .cls-10, .cls-13, .cls-14, .cls-15, .cls-9 {
        stroke: #000;
      }

      .cls-10 {
        fill: #420b05;
      }

      .cls-11 {
        fill: #5b2e0e;
      }

      .cls-12 {
        fill: #2e1707;
      }
    </style>
  </defs>
  <title>mainChar</title>
  <path class="cls-1" d="M25.41,40.8s-6.89,114.41-1.18,121.4,81.06,12.77,88.67,3c3.63-4.67,5-34.55,1.78-61.89-.59-21.43,1.76-62.49,1.76-62.49Z"/>
  <path class="cls-2" d="M76.87,42.43c2.63,1.55,2.6,5.08-.08,7.88-2.14,2.24-5.59,3-7.69,1.81-1.7-1-1.66-3.29.1-5.09a4.88,4.88,0,0,1,2.42-1.31c3.41-.72,4.13,1.91,2.2,3.64a2.88,2.88,0,0,1-1.16.61c-2.26.59-2.84-1-1.75-2.14A2,2,0,0,1,72,47.25c1.27-.22,1.57.73.91,1.42a1.14,1.14,0,0,1-1.29.31"/>
  <path class="cls-3" d="M25.62,28S20.11,9.84,66.49,8.26s48.3,19,48.3,19l0,5.88-89.17.78Z"/>
  <g>
    <path class="cls-2" d="M26.78,46.42c2.1,2.29,1,5.73-2.36,7.7-2.72,1.57-6.3,1.36-8-.47-1.36-1.48-.66-3.71,1.57-5a4.83,4.83,0,0,1,2.73-.58c3.51.29,3.45,3.08,1.08,4.21a2.78,2.78,0,0,1-1.3.26c-2.37-.08-2.47-1.82-1.08-2.61a2,2,0,0,1,1.22-.25c1.3.15,1.32,1.17.48,1.66a1.14,1.14,0,0,1-1.34-.08"/>
    <path class="cls-2" d="M104.62,42.9c-3,1.71-3.2,5.74-.41,9,2.23,2.61,6,3.61,8.4,2.24,2-1.11,2-3.72.21-5.82a5.2,5.2,0,0,0-2.6-1.55c-3.73-.88-4.69,2.1-2.66,4.12a3,3,0,0,0,1.24.72c2.47.72,3.21-1.09,2.08-2.41a2.06,2.06,0,0,0-1.18-.68c-1.39-.29-1.78.79-1.09,1.6a1.2,1.2,0,0,0,1.4.37"/>
    <path class="cls-2" d="M116.48,43.09c-3,1.71-3.2,5.74-.41,9,2.22,2.6,6,3.6,8.39,2.23,2-1.1,2.05-3.72.22-5.81A5.18,5.18,0,0,0,122.07,47c-3.72-.88-4.68,2.1-2.66,4.12a3,3,0,0,0,1.24.72c2.47.72,3.21-1.09,2.08-2.41a2.12,2.12,0,0,0-1.17-.68c-1.4-.29-1.79.8-1.1,1.6a1.2,1.2,0,0,0,1.41.37"/>
    <path class="cls-2" d="M26.78,60.42c2.1,2.29,1,5.74-2.36,7.7-2.72,1.57-6.3,1.36-8-.47-1.36-1.48-.66-3.71,1.57-5a4.83,4.83,0,0,1,2.73-.58c3.51.3,3.45,3.08,1.08,4.21a2.78,2.78,0,0,1-1.3.26c-2.37-.08-2.47-1.81-1.08-2.61a2.09,2.09,0,0,1,1.22-.25c1.3.15,1.32,1.18.48,1.66a1.12,1.12,0,0,1-1.34-.08"/>
    <path class="cls-2" d="M30.39,53.12c2.11,2.28,1.05,5.73-2.36,7.69-2.72,1.57-6.3,1.36-8-.46-1.36-1.48-.66-3.72,1.57-5a4.93,4.93,0,0,1,2.73-.58c3.51.3,3.45,3.08,1.08,4.22a2.91,2.91,0,0,1-1.3.26c-2.37-.09-2.46-1.82-1.08-2.62a2,2,0,0,1,1.23-.24c1.3.15,1.31,1.17.47,1.66A1.16,1.16,0,0,1,23.41,58"/>
    <path class="cls-2" d="M32.8,44.59c2.1,2.29,1.05,5.74-2.36,7.7-2.72,1.57-6.3,1.36-8-.47-1.36-1.48-.66-3.71,1.57-5a4.83,4.83,0,0,1,2.73-.58c3.51.3,3.45,3.08,1.08,4.21a2.78,2.78,0,0,1-1.3.26c-2.37-.08-2.46-1.81-1.08-2.61a2.09,2.09,0,0,1,1.22-.25c1.3.15,1.32,1.18.48,1.66a1.12,1.12,0,0,1-1.34-.08"/>
    <path class="cls-2" d="M38.82,44.59c2.1,2.29,1,5.74-2.36,7.7-2.72,1.57-6.3,1.36-8-.47-1.36-1.48-.66-3.71,1.57-5a4.83,4.83,0,0,1,2.73-.58c3.51.3,3.45,3.08,1.08,4.21a2.78,2.78,0,0,1-1.3.26c-2.37-.08-2.46-1.81-1.08-2.61a2.09,2.09,0,0,1,1.22-.25c1.31.15,1.32,1.18.48,1.66a1.12,1.12,0,0,1-1.34-.08"/>
    <path class="cls-2" d="M26.78,69c2.1,2.28,1,5.73-2.36,7.69-2.72,1.57-6.3,1.36-8-.46-1.36-1.48-.66-3.72,1.57-5a4.92,4.92,0,0,1,2.73-.58c3.51.3,3.45,3.08,1.08,4.22a2.91,2.91,0,0,1-1.3.26c-2.37-.09-2.47-1.82-1.08-2.62a2,2,0,0,1,1.22-.24c1.3.15,1.32,1.17.48,1.66a1.16,1.16,0,0,1-1.34-.08"/>
    <path class="cls-2" d="M53.27,44.59c2.1,2.29,1,5.74-2.36,7.7-2.72,1.57-6.3,1.36-8-.47-1.36-1.48-.66-3.71,1.57-5a4.83,4.83,0,0,1,2.73-.58c3.51.3,3.45,3.08,1.08,4.21a2.78,2.78,0,0,1-1.3.26c-2.37-.08-2.47-1.81-1.08-2.61a2.09,2.09,0,0,1,1.22-.25c1.3.15,1.32,1.18.48,1.66a1.12,1.12,0,0,1-1.34-.08"/>
    <path class="cls-4" d="M23.34,28S102,23.25,118.9,29.15c0,0,5.28,11.4,0,15.05s-95.55.65-95.55.65S20.45,36.44,23.34,28Z"/>
  </g>
  <path class="cls-5" d="M50.41,109.24C39.7,107.45,23.63,77.1,23.63,77.1L21.85,133l94.61,5.66L115.38,110s-31-12.7-39.38-12.7S61.12,111,50.41,109.24Z"/>
  <path d="M78.74,105.62c.62-1.14,28.73,11.33,28.73,11.33s-10.61,11.33-12.38,11.33S77.85,107.24,78.74,105.62Z"/>
  <polygon class="cls-6" points="102.61 121 83.6 113.72 79.03 106.09 106.55 116.96 102.61 121"/>
  <path class="cls-7" d="M107.53,140.07c-.4.66,15.11,6.49,16.29,9l-2.56,5.7-19.61-11Z"/>
  <path class="cls-1" d="M123.82,149.09s4.93-.63,6.12-.36c.76.18,2.52,1.08-2.55,3.44,0,0,4.27-1,6.63,4,3.22,6.92-10.77-.21-10.77-.21l-2-1.21Z"/>
  <path class="cls-1" d="M48,179.54s4.08,3,4.4,6.38-5.58-3.08-5.58-3.08,6.29,5.39,4.75,7.53-8,5-9.7-3.78l1.26-7.81Z"/>
  <polygon class="cls-8" points="62.93 167.8 60.19 193.02 53.61 193.02 54.71 167.8 62.93 167.8"/>
  <polygon class="cls-8" points="79.2 168.74 70.98 167.97 72.35 193.74 77.83 193.74 79.2 168.74"/>
  <path class="cls-7" d="M22.07,132.84l74.76,5s4.76,3,5.36,6.55-.3,27.08-.3,27.08-38.68,1.19-79.74-6C22.15,165.47,19,156.15,22.07,132.84Z"/>
  <path class="cls-9" d="M94.75,146.43c.59-3.57.59-6,1.78-10.12L21,131a33.39,33.39,0,0,0-1.19,7.74C19.77,142.27,94.75,146.43,94.75,146.43Z"/>
  <path class="cls-7" d="M106.65,137.5l-5.47,4.44v29.5s10.83-2.39,13.21-6,2.48-28,2.48-28Z"/>
  <path class="cls-9" d="M108.44,146.43c0-1.73-1-6-1.79-8.9l10.71-.62s1.19,4.32,0,7.41C113.6,145.08,110.22,146.43,108.44,146.43Z"/>
  <path class="cls-10" d="M106.06,148.81l6.77.26,3.34-.26c0,5.36,0,9.52-3.57,8.93C112.6,157.74,106.06,157.74,106.06,148.81Z"/>
  <path class="cls-10" d="M99.51,145.84c0,.67-.12.94-.61.94s-.89-.55-.89-1.22.4-1.22.89-1.22S99.51,145.16,99.51,145.84Z"/>
  <path class="cls-10" d="M99.51,153c0,.67-.12,1.12-.61,1.12s-.89-.55-.89-1.22.4-1.22.89-1.22S99.51,152.3,99.51,153Z"/>
  <path class="cls-10" d="M99.51,160.12c0,.67-.12,1.3-.61,1.3s-.89-.54-.89-1.22.4-1.22.89-1.22S99.51,159.44,99.51,160.12Z"/>
  <path class="cls-10" d="M99.51,167.26c0,.67-.12,1.49-.61,1.49s-.89-.55-.89-1.22.4-1.22.89-1.22S99.51,166.59,99.51,167.26Z"/>
  <path class="cls-9" d="M50.2,159.13l-1.55,20.79-5.74.47S40.3,157.25,41,149.46s8.73-6,8.9,1.72S50.2,159.13,50.2,159.13Z"/>
  <g>
    <path class="cls-11" d="M79.23,193l.44,7.3s18.61-1,15.89,9.58c0,0-10.37,1.11-25.88-1.35,0,0,2.27-8.91,1.31-16.54Z"/>
    <path class="cls-12" d="M80.16,193.4s4.65-2.26,5.15,3.31l-7.67,4.69Z"/>
    <path class="cls-13" d="M83.46,200.54c.71,1.84.77,3.53.13,3.77"/>
    <path class="cls-13" d="M85.65,200.56c.71,1.84.77,3.53.14,3.77"/>
    <path class="cls-13" d="M87.84,201.13c.71,1.84.77,3.53.13,3.77"/>
  </g>
  <g>
    <path class="cls-11" d="M60.65,192.56l.6,8.75s18.6-1.29,16,9.33c0,0-10.35,1.27-25.89-1,0,0,2.13-8.94,1-16.56Z"/>
    <path class="cls-12" d="M61.23,193.07s4.19-3,5.66,2.35l-6.73,6Z"/>
    <path class="cls-13" d="M64.46,201.45c.85,1.78,1,3.46.43,3.75"/>
    <path class="cls-13" d="M67.23,201.81c.86,1.78,1,3.45.43,3.75"/>
    <path class="cls-13" d="M70,202.17c.85,1.78,1,3.45.43,3.75"/>
  </g>
  <g>
    <path class="cls-14" d="M46,63.71s-1.79-11.3-12.5-7.14-.59,28.57,8.33,22"/>
    <path class="cls-14" d="M32.86,64.9s3.57-14.88,8.92,3c0,0-7.73-3-4.16,7.14"/>
    <path class="cls-14" d="M36.43,64.9c0-2,1.06-3.57,2.38-3.57"/>
    <path class="cls-14" d="M38.12,68.79a2.52,2.52,0,0,0,3.49-.54"/>
  </g>
  <path class="cls-6" d="M79,84.24H90.51s2.31-16.66-4.61-22.61S79,84.24,79,84.24Z"/>
  <path class="cls-6" d="M101.59,84.24h9.52s0-15.47-5.35-19S101.59,84.24,101.59,84.24Z"/>
  <ellipse class="cls-15" cx="107.69" cy="77.7" rx="2.23" ry="4.46"/>
  <ellipse class="cls-15" cx="87.31" cy="76.21" rx="2.68" ry="5.36"/>
</svg>
