<svg id="Layer_1" data-name="Layer 1" xmlns="http://www.w3.org/2000/svg" viewBox="0 0 216 150">
  <defs>
    <style>
      .cls-1 {
        fill: #6a2a00;
      }

      .cls-2 {
        fill: #351500;
      }

      .cls-3 {
        fill: #9e3f00;
      }

      .cls-4 {
        fill: #d35400;
      }

      .cls-5 {
        fill: #e59866;
      }

      .cls-6 {
        fill: #fff;
      }

      .cls-7 {
        fill: #f0e7e3;
      }

      .cls-7, .cls-8 {
        stroke: #000;
        stroke-miterlimit: 10;
      }
    </style>
  </defs>
  <title>villain_side</title>
  <path class="cls-1" d="M47,59.48S50.66,45,58.52,34.06L54.89,59.48Z"/>
  <path class="cls-1" d="M53,62s7-26.75,13.11-32.29c0,0-7,26.14-4.57,34Z"/>
  <polygon class="cls-2" points="115.47 137.24 123.16 131.32 123.68 125.76 118.77 123.78 128.05 122.6 127.53 128.16 132.12 133.69 115.47 137.24"/>
  <path class="cls-3" d="M123.44,127s-42.27-2.74-9.88-32.39c0,0,14.27-11,22-3.29s1.73,25-21.1,24.83C114.42,116.11,124,115.43,123.44,127Z"/>
  <polygon class="cls-2" points="74.56 116.67 67.3 119.09 69.72 115.46 60.64 121.52 64.27 114.86 70.93 111.23 74.56 111.23 74.56 116.67"/>
  <path class="cls-3" d="M75.58,93.11c-2.12,5.51,1.45,11,1.45,11s-2.41,0-5.8,7.33l2.9,5.23s7.25-8.37,9.19-12.56S78,86.83,75.58,93.11Z"/>
  <path class="cls-4" d="M120,4.71S66.09-.74,79.4,46.47c0,0,10.9,29.05,52.66,12.71s38.12,15.13,38.12,15.13-12.91,15.16-28.84,14.24S146,94.89,146,94.89l33.89-6.06s40.55-21.78-9.69-46c0,0-17.55-8.48-61.73-9.08C97.56,19.84,120,4.71,120,4.71Z"/>
  <path class="cls-4" d="M63.36,78.24s76.87-9.68,89.58,11.5-19.37,28.45-19.37,28.45-73.84-20-81.7-29S63.36,78.24,63.36,78.24Z"/>
  <path class="cls-5" d="M73.44,99.58s39.85,2,48.93,5.59,0,9.89,0,9.89Z"/>
  <rect class="cls-6" x="27.05" y="87.32" width="2.42" height="4.84" transform="translate(-44.04 29.53) rotate(-32.73)"/>
  <rect class="cls-6" x="31.69" y="89.85" width="1.55" height="4.84" transform="translate(-57.03 131.76) rotate(-94.43)"/>
  <path class="cls-4" d="M21,86.11S41.58,50.4,54.89,56.45,87,81.87,63.36,88.53s-27.83,4.24-27.83,4.24Z"/>
  <path class="cls-5" d="M27,76.86S62.69,66.61,60.31,89.37c0,0-18.68,5-24.15,3.59S21,86.11,21,86.11Z"/>
  <polygon class="cls-2" points="133.57 143 142.04 135.13 142.04 128.47 135.99 126.66 146.88 124.24 146.88 130.9 152.94 136.95 133.57 143"/>
  <path class="cls-3" d="M139.62,129.08s-46.6-3-10.89-35.71c0,0,15.73-12.1,24.21-3.63s1.9,27.52-23.26,27.38C129.68,117.12,140.23,116.37,139.62,129.08Z"/>
  <path class="cls-7" d="M48.23,62.51a17.49,17.49,0,0,0-10.89,6.65h7.87Z"/>
  <ellipse class="cls-8" cx="42.79" cy="66.74" rx="1.21" ry="1.82"/>
  <polygon class="cls-8" points="21 86.11 23.42 82.48 25.24 87.93 21 86.11"/>
  <polygon class="cls-2" points="81.22 117.88 70.93 119.09 74.56 120.91 67.3 126.96 83.64 123.94 85.29 122.09 81.22 117.88"/>
  <path class="cls-3" d="M85.15,97C82.5,103.37,87,109.71,87,109.71s-3,0-7.26,8.48l3.63,6s9.08-9.68,11.5-14.53S88.18,89.74,85.15,97Z"/>
</svg>
